<?xml version="1.0" encoding="UTF-8"?>
<svg width="80px" height="55px" viewBox="0 0 80 55" version="1.1" xmlns="http://www.w3.org/2000/svg" xmlns:xlink="http://www.w3.org/1999/xlink">
    <g stroke="none" stroke-width="1" >
        <path d="M13.9918773,7.71292996 C12.2078181,9.31328507 12.0358639,11.8725853 13.411525,13.5537719 C14.7871861,15.2349585 17.5598853,15.5151101 19.2365075,14.135704 L35.8734196,0.384953731 L35.8734196,63.3618672 C35.8734196,65.646394 37.721997,67.4999999 40.0003212,67.4999999 C42.2786454,67.4999999 44.1272196,65.646394 44.1272196,63.3618672 L44.1272196,0.384953731 L60.7641317,14.135704 C62.4407539,15.5150826 65.1757881,15.2025708 66.589114,13.5537719 C68.0453597,11.8510669 67.6853322,9.08692898 66.008765,7.71292996 L42.6229923,-11.5983701 C40.8605307,-12.8538253 39.0818379,-12.7460544 37.3783908,-11.5983701 L13.9918773,7.71292996 Z" id="Path" transform="translate(40.000000, 27.500000) scale(-1, -1) rotate(90.000000) translate(-40.000000, -27.500000) " />
    </g>
</svg>
