<?xml version="1.0" encoding="UTF-8"?>
<svg width="100px" height="100px" viewBox="0 0 100 100" version="1.1" xmlns="http://www.w3.org/2000/svg" xmlns:xlink="http://www.w3.org/1999/xlink">
    <title>EXPORT</title>
    <defs>
        <rect id="path-1" x="0" y="0" width="85" height="100"></rect>
    </defs>
    <g id="EXPORT" stroke="none" stroke-width="1" fill="none" fill-rule="evenodd">
        <g id="Icon---Inactive">
            <mask id="mask-2" fill="white">
                <use xlink:href="#path-1"></use>
            </mask>
            <g id="Icon---Inactive-(Background/Mask)"></g>
            <path d="M79.4127759,19 C81.6908462,11.0944218 77.134706,2.80507743 69.3133318,0.579235041 C62.4791212,-1.41634778 55.1892982,1.88403937 52,8.33130697 C53.0630994,8.25455378 54.1261978,8.17779982 55.1133615,8.17779982 C59.137952,8.17779982 63.1625462,8.94533234 66.9593299,10.4036429 C71.7432774,12.2457194 75.9956706,15.1623406 79.4127759,19 Z" id="Vector" fill="#000445" fill-rule="nonzero" opacity="0.100000001" mask="url(#mask-2)"></path>
            <path d="M65.9073098,13.0068415 C50.5012676,7.08884208 33.3323392,14.6976983 27.3538752,30.0691257 L22.6017635,42.5199829 C20.91553,46.9008397 17.2364743,50.2825544 12.7143029,51.5122686 C7.19572035,53.0494114 2.75019667,57.1228347 0.680728217,62.5028342 C-1.31209311,67.6522626 1.21725683,73.3396913 6.3526044,75.3379767 L68.283362,99.3174027 C73.4187096,101.315688 79.0905864,98.7794046 81.0834077,93.6299763 C83.1528762,88.2499768 82.5397016,82.2551226 79.5504697,77.413123 C77.0977664,73.416552 76.561237,68.4208396 78.2474705,64.0399828 L82.9995821,51.6659827 C88.9013992,36.2945553 81.3133521,18.9248409 65.9073098,13.0068415 Z" id="Vector" fill="#000445" fill-rule="nonzero" opacity="0.25" mask="url(#mask-2)"></path>
            <path d="M35,90.4732117 C33.5690607,92.2843688 31.7615598,93.7805417 29.7281196,94.7254931 C26.26374,96.3004123 22.3474846,96.4579096 18.8077925,94.9617364 L18.2052923,94.7254931 C12.4062224,92.4418604 8.71590407,86.4571684 9.01715445,80 L35,90.4732117 Z" id="Vector" fill="#000445" fill-rule="nonzero" opacity="0.100000001" mask="url(#mask-2)"></path>
            <path d="M39.5649655,22.938999 C40.8237849,21.9009589 42.0826047,20.9370655 43.4987766,20.1214626 C43.9708339,19.8990255 44.6002442,19.9731709 44.8362729,20.4180452 C45.1509777,20.8629195 44.9936218,21.3819383 44.5215646,21.6785211 C43.1840689,22.4199783 42.0039292,23.3097281 40.9024622,24.2736223 C39.7223189,25.2375166 38.699525,26.2755554 37.8340867,27.4618868 C36.8899721,28.6482182 36.1032124,29.8345496 35.4738027,31.1691725 C34.7657168,32.5037955 34.214983,33.8384169 33.821602,35.3213313 C33.7429257,35.7662055 33.1921895,36.0627895 32.7201322,35.9886438 C32.2480749,35.9144981 31.9333726,35.3954774 32.0120488,34.8764574 C32.4054299,33.3193974 33.034838,31.8364847 33.7429239,30.4277161 C34.4510099,29.0189475 35.3164474,27.6843249 36.3392382,26.4238478 C36.7326192,25.7565363 37.2833532,25.1633706 37.8340867,24.5702049 C38.3848202,23.9770392 38.9355558,23.458019 39.5649655,22.938999 Z" id="Vector" fill="#FFFFFF" fill-rule="nonzero" mask="url(#mask-2)"></path>
            <path d="M47.5379141,18.2764969 C48.2458778,17.9788072 48.953841,17.7555406 49.732601,17.5322733 C50.4405647,17.3090061 51.2193262,17.1601617 51.9980863,17.0113169 C52.4936608,16.9368945 52.9184381,17.2345834 52.9892345,17.7555404 C53.0600308,18.2764973 52.776846,18.7230326 52.2812715,18.7974551 L52.2104768,18.7974551 C51.5025132,18.9462999 50.7945496,19.0951443 50.1573822,19.2439892 C49.4494185,19.4672564 48.8122499,19.6161006 48.1750825,19.9137903 C47.7503043,20.1370576 47.2547308,19.9137908 47.0423417,19.3928339 C46.9715453,19.0951442 46.9715452,18.7230329 47.1839343,18.4997657 C47.2547306,18.4253433 47.3963213,18.2764969 47.5379141,18.2764969 Z" id="Vector" fill="#FFFFFF" fill-rule="nonzero" mask="url(#mask-2)"></path>
        </g>
    </g>
</svg>
