<?xml version="1.0" encoding="UTF-8"?>
<svg width="84px" height="70px" viewBox="0 0 84 70" version="1.1" xmlns="http://www.w3.org/2000/svg" xmlns:xlink="http://www.w3.org/1999/xlink">
    <path d="M9.62453722,32 C10.140298,32 10.6307979,32.2038279 10.9914482,32.5649895 L10.9914482,32.5649895 L18.684189,40.1922881 C19.0484494,40.5499435 19.2540262,41.0397673 19.2540262,41.5475704 C19.2540262,42.0553734 19.0484494,42.5452704 18.684189,42.9028527 C18.3234649,43.2640142 17.8330105,43.4642633 17.3208782,43.4642633 C16.8051175,43.4642633 16.3146175,43.2640142 15.9539672,42.9028527 L15.9539672,42.9028527 L11.7018167,38.6690251 C12.5816993,47.6410787 17.4148671,55.7689297 24.9092876,60.8716765 C32.4035235,65.9779842 41.7911246,67.5334794 50.5514494,65.1269258 C59.3151909,62.7202808 66.5538664,56.5951894 70.329883,48.3957519 C70.7699166,47.4373908 71.9023129,47.0118634 72.8685067,47.4405094 C73.8350905,47.8732295 74.264275,48.9995645 73.8314891,49.95792 C69.5474857,59.237555 61.3210894,66.1460633 51.3847866,68.8101251 C41.4447914,71.4740954 30.830987,69.614692 22.4132895,63.735942 C13.9992854,57.860762 8.65436335,48.5738025 7.83928295,38.400715 L7.83928295,38.400715 L3.29860865,42.9027614 C2.54484566,43.6501213 1.31865132,43.6501213 0.564879081,42.9027614 C-0.188893163,42.1554107 -0.188893163,40.9396479 0.568486358,40.1922881 L0.568486358,40.1922881 L8.2612264,32.5649895 C8.62195056,32.2038279 9.11240492,32 9.62453722,32 Z M43.9595341,18 C47.5743546,18.0225582 50.9956574,19.7061649 53.320794,22.6009052 C53.7292062,22.9608759 53.9728242,23.4820945 53.9979016,24.0370445 C54.0229762,24.5957574 53.8223516,25.1357135 53.449763,25.5331788 C53.0771285,25.9306536 52.5612631,26.1443812 52.0274594,26.125633 C51.4972417,26.110639 50.9956844,25.8594079 50.6481704,25.4394421 C48.3337645,23.0621957 46.8076418,22.0010023 43.9594597,22.0010023 C39.9609071,22.0198168 36.2600592,24.2170777 34.1964914,27.8018099 L34.1964914,27.8018099 L41.282875,27.8018099 C42.339706,27.8018099 43.1959394,28.6942397 43.1959394,29.8003673 C43.1959394,30.9064949 42.3396969,31.7989246 41.282875,31.7989246 L41.282875,31.7989246 L32.7061366,31.7989246 C32.4266929,33.2537821 32.4266929,34.746173 32.7061366,36.2010305 L32.7061366,36.2010305 L41.282875,36.2010305 C42.339706,36.2010305 43.1959394,37.0934602 43.1959394,38.1995878 C43.1959394,39.3057154 42.3396969,40.1981451 41.282875,40.1981451 L41.282875,40.1981451 L34.1964914,40.1981451 C36.2605179,43.7828773 39.961274,45.9802041 43.9594597,45.9989523 C46.825526,45.9989523 48.3338561,44.9378545 50.6481704,42.560512 C50.9956752,42.1405462 51.4972417,41.8893214 52.0274594,41.8743226 C52.5612815,41.8555753 53.0771744,42.0693101 53.449763,42.4667754 C53.8223516,42.864279 54.0229799,43.4042067 53.9979016,43.9629101 C53.9728269,44.5178697 53.7292062,45.0390787 53.320794,45.3990494 C50.9957493,48.2938857 47.5743546,49.9774564 43.9595341,50 C40.9429649,50.0074425 37.9873847,49.0850528 35.4724,47.3377071 C32.9574154,45.594105 30.990514,43.1118444 29.8190495,40.1982896 L29.8190495,40.1982896 L27.9095615,40.1982896 C27.4043818,40.1982896 26.9171504,39.9883734 26.5588876,39.6133319 C26.2006247,39.2382904 26,38.72836 26,38.1996542 L26,38.1996542 L26.0052247,38.0501874 C26.0779434,37.014221 26.9007769,36.2010773 27.9095615,36.2010773 L27.9095615,36.2010773 L28.884024,36.2010773 C28.7657954,35.4736486 28.6941463,34.7386662 28.6726504,33.9999775 C28.7120599,33.2612217 28.801628,32.5263152 28.9413453,31.7988768 L28.9413453,31.7988768 L27.9668828,31.7988768 C26.9100518,31.7988768 26.0573947,30.906447 26.0573947,29.8003194 C26.0573947,28.6941918 26.9100609,27.8017621 27.9668828,27.8017621 L27.9668828,27.8017621 L29.8763709,27.8017621 C31.0442586,24.8994384 33.000337,22.4209202 35.5045912,20.6773181 C38.0124221,18.9336777 40.9502102,18.0037504 43.9595341,18 Z M32.6146559,1.18986292 C42.5544068,-1.47408177 53.1679503,0.385306146 61.5854409,6.2639996 C69.9992382,12.139123 75.3440298,21.4259912 76.1626975,31.5989808 L76.162,31.595 L80.6996473,27.0969786 C81.0202831,26.7759492 81.446242,26.5820593 81.8966385,26.542936 L82.0665247,26.5355734 C82.5786721,26.5355734 83.0727607,26.7358205 83.4334021,27.0969786 L83.4334021,27.0969786 C83.7980379,27.4549062 84,27.9447244 84,28.4525225 C84,28.9603207 83.7980379,29.4502139 83.4337866,29.8077927 L83.4337866,29.8077927 L83.4301807,29.8077927 L75.737628,37.4350192 C75.3769127,37.7961772 74.8864723,38 74.3743526,38 C73.8586045,38 73.3681167,37.7961772 73.0074752,37.4350192 L73.0074752,37.4350192 L65.3149225,29.8077927 C64.5611688,29.0604492 64.5611688,27.8446981 65.3149225,27.0973455 C66.068667,26.3499928 67.2912332,26.3499928 68.0449869,27.0973455 L68.0449869,27.0973455 L72.2970309,31.3311336 C71.41717,22.3591664 66.584121,14.2313924 59.0898847,9.12869464 C51.595833,4.02243619 42.2084646,2.46695642 33.4483551,4.87348679 C24.6848291,7.28010864 17.4463333,13.4051388 13.6704096,21.6044973 C13.2303868,22.5628491 12.0980158,22.9883743 11.1314613,22.5592743 C10.1649013,22.1265583 9.73573233,21.0002342 10.1685076,20.0418879 C14.4524057,10.7623423 22.6785974,3.85389909 32.6146559,1.18986292 Z" id="Combined-Shape" />
</svg>
