<?xml version="1.0" encoding="UTF-8"?>
<svg width="220px" height="220px" viewBox="0 0 220 220" version="1.1" xmlns="http://www.w3.org/2000/svg" xmlns:xlink="http://www.w3.org/1999/xlink">
    <defs>
        <rect id="path-1" x="0" y="0" width="220" height="220" />
    </defs>
    <g stroke="none" stroke-width="1" fill="none" fill-rule="evenodd">
        <g id="Discount---Inactive">
            <mask id="mask-2" fill="white">
                <use xlink:href="#path-1" />
            </mask>
            <g id="Discount---Inactive-(Background/Mask)" />
            <g id="Group" mask="url(#mask-2)" fill="#000445">
                <g transform="translate(0.000000, 0.524902)" id="Vector">
                    <path d="M205.313284,54.7292966 C201.330511,47.8848042 191.237153,43.475782 183.790239,36.0593754 C176.348481,28.6584372 171.907221,18.5960158 165.021479,14.6222656 C158.025307,10.5913672 147.096637,11.79793 137.040231,9.13085967 C127.105856,6.50718774 118.25043,0 110,0 C101.74957,0 92.8941441,6.50718774 82.9597688,9.13085967 C72.9085187,11.796641 61.9729674,10.5922265 54.9785143,14.6222656 C48.0919126,18.5964452 43.6536702,28.6567186 36.2097642,36.0593754 C28.7628504,43.4753525 18.6694923,47.8848042 14.6867189,54.7292966 C10.6403518,61.6824996 11.8426173,72.5737907 9.16953132,82.5730488 C6.51664078,92.5082834 0,101.283792 0,109.475784 C0,117.667347 6.51707044,126.444138 9.16953132,136.378513 C11.8421875,146.376482 10.6407812,157.269498 14.6867189,164.222272 C18.6694923,171.066764 28.7624201,175.47578 36.2097642,182.892187 C43.6506624,190.291836 48.0936312,200.355983 54.9785143,204.329303 C61.9729674,208.359772 72.9072295,207.154498 82.9597688,209.820709 C92.8941441,212.444381 101.74957,218.951569 110,218.951569 C118.25043,218.951569 127.105856,212.444381 137.040231,209.820709 C147.091911,207.154928 158.027026,208.359342 165.021479,204.329303 C171.90851,200.355123 176.346333,190.294843 183.790239,182.892187 C191.237153,175.47578 201.330511,171.066764 205.313284,164.222272 C209.360081,157.26778 208.155666,146.383787 210.83047,136.378513 C213.482931,126.444568 220,117.666917 220,109.475784 C220,101.285081 213.482931,92.5069942 210.83047,82.5730488 C208.155666,72.5677751 209.360511,61.684219 205.313284,54.7292966 Z M22.1074222,109.475784 C22.1074222,61.1832049 61.5355465,21.8925775 110,21.8925775 C158.464454,21.8925775 197.892573,61.1832049 197.892573,109.475784 C197.892573,157.768364 158.464454,197.058985 110,197.058985 C61.5355465,197.058985 22.1074222,157.768364 22.1074222,109.475784 Z" fill-rule="evenodd" opacity="0.100000001" />
                    <path d="M34.9987793,109.475328 C34.9987793,150.660894 68.6433151,184.167929 110.000741,184.167929 C151.358167,184.167929 185.002689,150.660894 185.002689,109.475328 C185.002689,68.289763 151.358167,34.7827148 110.000741,34.7827148 L110.000741,34.7827148 C68.6433151,34.7827148 34.9987793,68.289763 34.9987793,109.475328 Z M84.2624598,60.761636 C95.5718358,60.761636 104.771444,70.9839035 104.771444,83.5522687 C104.771444,96.1163369 95.5718358,106.338607 84.2624598,106.338607 C72.9530839,106.338607 63.7534688,96.1163369 63.7534688,83.5522687 C63.7534688,70.9839035 72.9530839,60.761636 84.2624598,60.761636 Z M93.814412,153.024173 C89.2133177,153.024173 86.0937855,148.325966 87.8718325,144.086667 L119.698792,68.2467949 C121.078089,64.9682777 124.855036,63.4214002 128.137848,64.8006977 C131.420661,66.1756984 132.963248,69.9569522 131.583951,73.2354694 L99.761286,149.075342 C98.7214421,151.541749 96.3323811,153.024173 93.814412,153.024173 Z M115.230044,135.398381 C115.230044,122.834313 124.429646,112.612043 135.739022,112.612043 C147.048398,112.612043 156.248006,122.834313 156.248006,135.398381 C156.248006,147.966747 147.048398,158.189027 135.739022,158.189027 L135.739022,158.189027 C124.429646,158.189027 115.230044,147.966747 115.230044,135.398381 Z" fill-rule="evenodd" opacity="0.25" />
                    <path d="M76.6430664,83.5523334 C76.6430664,88.9148292 80.1321391,93.4480286 84.2614421,93.4480286 C88.3907452,93.4480286 91.8798113,88.9148292 91.8798113,83.5523334 C91.8798113,78.1855407 88.3907452,73.6523438 84.2614421,73.6523438 C80.1321391,73.6523438 76.6430664,78.1855407 76.6430664,83.5523334 Z" fill-rule="nonzero" opacity="0.25" />
                    <path d="M128.120117,135.399852 C128.120117,140.766648 131.609171,145.299854 135.738466,145.299854 C139.867762,145.299854 143.356829,140.766648 143.356829,135.399852 C143.356829,130.037353 139.867762,125.50415 135.738466,125.50415 L135.738466,125.50415 C131.609171,125.50415 128.120117,130.037353 128.120117,135.399852 Z" fill-rule="nonzero" opacity="0.25" />
                </g>
            </g>
        </g>
    </g>
</svg>
