<?xml version="1.0" encoding="UTF-8"?>
<svg width="120px" height="120px" viewBox="0 0 120 120" version="1.1" xmlns="http://www.w3.org/2000/svg" xmlns:xlink="http://www.w3.org/1999/xlink">
    <path d="M25,50 C11.1928809,50 0,38.8071191 0,25 C0,11.1928809 11.1928809,0 25,0 C38.8071191,0 50,11.1928809 50,25 C50,38.8071191 38.8071191,50 25,50 Z M95,50 C81.1928809,50 70,38.8071191 70,25 C70,11.1928809 81.1928809,0 95,0 C108.807119,0 120,11.1928809 120,25 C120,38.8071191 108.807119,50 95,50 Z M25,120 C11.1928809,120 0,108.807119 0,95 C0,81.1928809 11.1928809,70 25,70 C38.8071191,70 50,81.1928809 50,95 C50,108.807119 38.8071191,120 25,120 Z M95,120 C81.1928809,120 70,108.807119 70,95 C70,81.1928809 81.1928809,70 95,70 C108.807119,70 120,81.1928809 120,95 C120,108.807119 108.807119,120 95,120 Z" id="Vector" />
</svg>
