<?xml version="1.0" encoding="UTF-8"?>
<svg width="100px" height="100px" viewBox="0 0 100 100" version="1.1" xmlns="http://www.w3.org/2000/svg" xmlns:xlink="http://www.w3.org/1999/xlink">
    <title>QQQQQQQQQQQQQQQQQQQQQQQQQQQQQQQQ</title>
    <g id="QQQQQQQQQQQQQQQQQQQQQQQQQQQQQQQQ" stroke="none" stroke-width="1" fill="none" fill-rule="evenodd">
        <g id="Menu-Bar" transform="translate(0.000000, 3.000000)" fill="#000445" fill-rule="nonzero">
            <g id="Heart-Inactive">
                <path d="M17.1492168,69.3980026 C10.3548526,62.6690024 5.16599177,54.4525009 1.97901429,45.3765011 C-3.7153493,27.6761508 2.91328276,7.44740173 21.4199769,1.44200191 C31.1881857,-1.62234798 41.8120301,0.258752108 49.9809439,6.49915218 C58.1528608,0.265752077 68.772946,-1.61474809 78.5416053,1.44200191 C97.0482995,7.44740173 103.721583,27.6761508 98.0268691,45.3765011 C94.8659199,54.4440013 89.7077852,62.6595026 82.9459064,69.3980026 C73.3128949,78.8125026 62.6908131,87.1255022 51.2708512,94.1870022 L50.0254909,95 L48.8241812,94.1870022 C37.396461,87.1365023 26.7733684,78.8225025 17.1492168,69.3980026 Z" id="Vector" opacity="0.100000001"></path>
                <path d="M48.8267814,94.1869852 C37.4098771,87.1368382 26.7951475,78.8231696 17.1763832,69.3974728 C10.3647091,62.6773326 5.15628702,54.4601594 1.95048177,45.3754697 C-3.68712226,27.6747498 2.92706639,7.44557609 21.3934352,1.44005087 C31.1403594,-1.62436301 41.8808511,0.25822523 50,6.55100673 L50,95 L48.8267814,94.1869852 Z" id="Vector" opacity="0.25"></path>
                <path d="M77.9944033,32.6078432 C77.3900796,31.7861441 77.108217,30.7169968 77.2141487,29.650798 C77.3158804,26.1390019 75.4506446,22.9425536 72.5746239,21.6988549 C70.7509197,21.1654555 69.6467984,19.0493584 70.1027244,16.9624606 C70.5357842,14.9091128 72.330089,13.6323627 74.1337268,14.0945122 C74.3614565,14.1350122 74.5807924,14.2234133 74.7805226,14.3552632 C80.5470305,16.7329106 84.2803009,23.1320554 83.9835057,30.1287981 C83.9737058,31.189247 83.587777,32.1998959 82.9139211,32.9290452 C82.2400652,33.6581944 81.3356816,34.0434911 80.4084298,33.9960911 C79.4713781,33.9314412 78.5982603,33.4294924 77.9944033,32.6078432 Z" id="Vector" opacity="0.25"></path>
            </g>
        </g>
    </g>
</svg>
