<?xml version="1.0" encoding="UTF-8"?>
<svg width="100px" height="100px" viewBox="0 0 100 100" version="1.1" xmlns="http://www.w3.org/2000/svg" xmlns:xlink="http://www.w3.org/1999/xlink">
    <title>QQQQQQQQQQQQQQQQQQQQQQQQQQQQQQQQ</title>
    <g id="QQQQQQQQQQQQQQQQQQQQQQQQQQQQQQQQ" stroke="none" stroke-width="1" fill="none" fill-rule="evenodd">
        <g id="Menu-Bar" transform="translate(0.000000, 2.000000)" fill-rule="nonzero">
            <g id="Heart-Active">
                <path d="M17.1492168,69.3980026 C10.3548526,62.6690024 5.16599177,54.4525009 1.97901429,45.3765011 C-3.7153493,27.6761508 2.91328276,7.44740173 21.4199769,1.44200191 C31.1881857,-1.62234798 41.8120301,0.258752108 49.9809439,6.49915218 C58.1528608,0.265752077 68.772946,-1.61474809 78.5416053,1.44200191 C97.0482995,7.44740173 103.721583,27.6761508 98.0268691,45.3765011 C94.8659199,54.4440013 89.7077852,62.6595026 82.9459064,69.3980026 C73.3128949,78.8125026 62.6908131,87.1255022 51.2708512,94.1870022 L50.0254909,95 L48.8241812,94.1870022 C37.396461,87.1365023 26.7733684,78.8225025 17.1492168,69.3980026 Z" id="Vector" fill="#FFFFFF" opacity="0.899999976"></path>
                <path d="M48.8267814,95.1869852 C37.4098771,88.1368382 26.7951475,79.8231696 17.1763832,70.3974728 C10.3647091,63.6773326 5.15628702,55.4601594 1.95048177,46.3754697 C-3.68712226,28.6747498 2.92706639,8.44557609 21.3934352,2.44005087 C31.1403594,-0.624363008 41.8808511,1.25822523 50,7.55100673 L50,96 L48.8267814,95.1869852 Z" id="Vector" fill="#FFFFFF"></path>
                <path d="M78.5654321,34.6078432 C77.9179424,33.7861441 77.6159468,32.7169968 77.729445,31.650798 C77.8384433,28.1390019 75.8399764,24.9425536 72.7585257,23.6988549 C70.8045569,23.1654555 69.6215697,21.0493584 70.1100619,18.9624606 C70.5740545,16.9091128 72.4965239,15.6323627 74.428993,16.0945122 C74.6729891,16.1350122 74.9079919,16.2234133 75.1219885,16.3552632 C81.3003899,18.7329106 85.3003224,25.1320554 84.9823275,32.1287981 C84.9718277,33.189247 84.5583325,34.1998959 83.836344,34.9290452 C83.1143555,35.6581944 82.1453732,36.0434911 81.151889,35.9960911 C80.1479051,35.9314412 79.2124218,35.4294924 78.5654321,34.6078432 Z" id="Vector" fill="#FB2C6F"></path>
            </g>
        </g>
    </g>
</svg>
