<?xml version="1.0" encoding="UTF-8"?>
<svg width="13px" height="13px" viewBox="0 0 13 13" version="1.1" xmlns="http://www.w3.org/2000/svg" xmlns:xlink="http://www.w3.org/1999/xlink">
    <title>1F264BDF-EB4C-414E-9982-1F5DC505174C</title>
    <defs>
        <linearGradient x1="83.7877855%" y1="5.29904797%" x2="7.53013904%" y2="14.790451%" id="linearGradient-1">
            <stop stop-color="#FF9D8B" offset="0%"></stop>
            <stop stop-color="#FA166A" offset="48.8900006%"></stop>
            <stop stop-color="#F5166A" offset="56.7499995%"></stop>
            <stop stop-color="#E8166A" offset="65.4999971%"></stop>
            <stop stop-color="#D2166A" offset="74.6900022%"></stop>
            <stop stop-color="#B3166A" offset="84.1700017%"></stop>
            <stop stop-color="#8B166A" offset="93.7900007%"></stop>
            <stop stop-color="#73166A" offset="100%"></stop>
        </linearGradient>
    </defs>
    <g id="Page-1" stroke="none" stroke-width="1" fill="none" fill-rule="evenodd">
        <g id="6.0.6-Profile---Refer-A-Friend" transform="translate(-250.000000, -479.000000)" fill="url(#linearGradient-1)">
            <g id="Registratiecode" transform="translate(18.000000, 463.000000)">
                <g id="Kopieer-link" transform="translate(220.000000, 10.000000)">
                    <path d="M17.444454,9.93188477 C17.9895182,9.93188477 18.5236005,10.088096 18.9831567,10.3823719 C19.1565695,10.4927227 19.3170805,10.6217012 19.4623046,10.7674022 C19.6271202,10.9331716 19.7135816,11.1619959 19.6982949,11.3955896 C19.6844414,11.5909786 19.6003647,11.7744196 19.4623046,11.9129542 C19.1403291,12.2158274 18.6382508,12.2158274 18.3167522,11.9129542 C17.8390475,11.4362034 17.0656851,11.4362034 16.5883718,11.9129542 L13.985345,14.5141467 C13.5076403,14.9918513 13.5076403,15.766681 13.985345,16.2443612 C14.4630496,16.7220414 15.2378797,16.7220659 15.7155599,16.2443612 L17.2547409,14.7032129 C17.3125444,14.6449325 17.4004419,14.6272574 17.4768756,14.658786 C17.8910485,14.8269402 18.333887,14.9129252 18.7810182,14.9114944 L18.862707,14.9114944 C18.9453508,14.9110162 19.0203559,14.9606982 19.0523602,15.037127 C19.0838888,15.1135608 19.0662139,15.2014657 19.0074553,15.2597388 L16.8673111,17.3998824 C16.3817818,17.8862788 15.7379171,18.1776417 15.0567617,18.2248222 L14.8514063,18.2316017 C14.0951894,18.231124 13.3700596,17.9306484 12.8355128,17.3956124 C12.300966,16.8605763 12.0004775,16.1353729 12,15.3792294 C11.9995229,14.6230125 12.299523,13.8973936 12.8336051,13.3623576 L15.4266037,10.7674022 C15.9606858,10.2314123 16.6873321,9.93044686 17.444454,9.93188477 Z M22.1146212,6.09722248 C23.0991854,6.36091271 23.868806,7.13050868 24.1324718,8.11507292 C24.3961608,9.09963717 24.1147966,10.150656 23.3939263,10.8714566 L20.7989705,13.466412 C20.4339964,13.8313861 19.9768253,14.090307 19.4762394,14.2164165 L19.4537875,14.2164165 L19.3357933,14.2407799 L19.2703465,14.2532004 L19.129904,14.2737419 L19.0606355,14.2737419 C19.00761,14.2737419 18.9607935,14.283774 18.9158884,14.2861624 L18.7935076,14.299962 L18.6387337,14.299962 C18.5369814,14.2956622 18.4357012,14.2861082 18.3349065,14.2712996 C18.2513076,14.256968 18.169614,14.2407262 18.0884108,14.2201845 L17.9680271,14.1877006 L17.90282,14.1678162 L17.90282,14.1678162 L17.7724057,14.1210603 L17.7724057,14.1210603 L17.7071985,14.0959801 C17.6642049,14.0778267 17.6216882,14.061107 17.578692,14.0410435 C17.2753419,13.9001241 16.9992266,13.7071196 16.7632359,13.470175 C16.5984203,13.3044056 16.5119585,13.0760584 16.5272453,12.8424647 C16.5401436,12.6456448 16.6242207,12.460296 16.7632359,12.3208075 C17.0852114,12.0179343 17.5872892,12.0179343 17.9087878,12.3208075 C18.3864925,12.7975583 19.159855,12.7975583 19.6371684,12.3208075 L20.3054804,11.6563113 L20.3217223,11.6381576 L22.2335435,9.72829295 L22.234022,9.72781466 C22.7117267,9.25010996 22.7117267,8.47527997 22.234022,7.99759975 C21.7563174,7.51991954 20.9814872,7.51989506 20.503807,7.99759975 L18.9688956,9.53055459 C18.9106152,9.588835 18.8231944,9.60651003 18.7467607,9.57498142 C18.3335416,9.40635028 17.8907031,9.31941165 17.4445747,9.32036554 L17.3690961,9.32036554 C17.2854972,9.32179883 17.2100161,9.27259511 17.1775348,9.19616383 C17.1445729,9.1197301 17.1612929,9.03087114 17.2200515,8.97212112 L19.3582391,6.83576793 C20.0790996,6.11490616 21.1300338,5.83353835 22.1146212,6.09722248 Z" id="Combined-Shape"></path>
                </g>
            </g>
        </g>
    </g>
</svg>