<?xml version="1.0" encoding="UTF-8"?>
<svg width="448px" height="64px" viewBox="0 0 448 64" version="1.1" xmlns="http://www.w3.org/2000/svg" xmlns:xlink="http://www.w3.org/1999/xlink">
    <path d="M328.716755,0.0366582418 L302.324084,0.0366582418 C297.04555,0.0366582418 292.53136,1.97328152 288.746136,5.84544081 C284.959807,9.71760011 283.066917,14.3344048 283.066917,19.7708642 L283.066917,24.4251734 L283.03044,24.4251734 L283.03044,43.4141906 C283.03044,45.4247348 282.339054,47.1004615 280.955725,48.5527929 C279.572397,49.9676203 277.860783,50.6753052 275.859019,50.6753052 L249.46635,50.6753052 C247.464586,50.6753052 245.790001,49.9676203 244.370197,48.5527929 C242.986868,47.1379655 242.295481,45.4247348 242.295481,43.4141906 L242.295481,19.7708642 C242.295481,17.7972805 242.986868,16.0845951 244.370197,14.6328072 C245.753525,13.2174362 247.464586,12.5102939 249.46635,12.5102939 L275.859019,12.5102939 C277.57008,12.5102939 279.026358,13.0315464 280.300258,14.0365468 C281.101627,10.0154584 282.993966,6.44115747 286.052431,3.31364412 C286.124831,3.23863598 286.161308,3.20167566 286.23426,3.16417159 C283.212823,1.11666685 279.754226,0.07416231 275.895496,0.07416231 L249.50338,0.07416231 C244.18837,0.07416231 239.601776,2.01024196 235.851923,5.88240126 C232.066146,9.75456055 230.172705,14.371909 230.172705,19.8078251 L230.172705,43.4516948 C230.172705,48.85065 232.066146,53.504961 235.851923,57.3771203 C239.6377,61.249823 244.18837,63.1853575 249.50338,63.1853575 L275.895496,63.1853575 C281.173478,63.1853575 285.687671,61.249823 289.474001,57.3771203 C293.259778,53.504961 295.152663,48.8876109 295.152663,43.4516948 L295.152663,34.0686113 L295.18914,34.0686113 L295.18914,19.8078251 C295.18914,17.797281 295.881083,16.1215561 297.264412,14.6697681 C298.64774,13.2549408 300.358248,12.5472549 302.360565,12.5472549 L328.75268,12.5472549 C330.754996,12.5472549 332.430134,13.2549408 333.849386,14.6697681 C335.232714,16.0845955 335.924657,17.797281 335.924657,19.8078251 L335.924657,43.4516948 C335.924657,45.424735 335.232714,47.1379657 333.849386,48.5902971 C332.466057,50.004581 330.754996,50.7122661 328.75268,50.7122661 L302.360565,50.7122661 C300.650057,50.7122661 299.193775,50.191015 297.919322,49.1854711 C297.118506,53.2071031 295.225619,56.7814018 292.167706,59.9089151 C292.094754,59.9839233 292.058829,60.0208849 291.985877,60.0578455 C295.007313,62.1058937 298.465355,63.1483965 302.324084,63.1483965 L328.716755,63.1483965 C334.031212,63.1483965 338.618356,61.2117753 342.367657,57.3396161 C346.153987,53.4674568 348.046327,48.85065 348.046327,43.4141906 L348.046327,19.7708642 C348.010404,14.3344048 346.116958,9.68063966 342.367657,5.84544081 C338.581327,1.97328152 334.031212,0.0366582418 328.716755,0.0366582418 Z" id="Fill-5"></path>
    <path d="M201.871774,0 C206.713713,0 210.82668,1.74964634 214.285287,5.2869862 C217.743894,8.82432605 219.454957,13.0313029 219.454957,17.9834701 C219.454957,22.1909914 218.144578,25.9886861 215.523266,29.3401363 C219.309053,33.2122951 221.201948,37.8666035 221.201948,43.3030622 C221.201948,48.7384339 219.309053,53.4302486 215.523266,57.265447 C211.737479,61.1376059 207.186798,63.0742268 201.871774,63.0742268 L170.638198,63.0742268 C166.597078,63.0742268 163.13847,61.6218958 160.299406,58.7177768 C157.459789,55.8131142 156.040534,52.3132772 156.040534,48.1432601 L156.05435,5.58375724 C156.05435,2.51983815 158.579498,0.0369605297 161.694344,0.0369605297 L201.871774,0 Z M201.871595,50.6377628 L202.185034,50.6318818 C204.049427,50.5613108 205.622681,49.855613 206.967763,48.5152515 C208.351095,47.1004255 209.042484,45.3502376 209.042484,43.3027348 C209.042484,41.2546884 208.351095,39.5420042 206.967763,38.0896741 C205.58443,36.6753915 203.873917,35.9677067 201.871595,35.9677067 L201.871595,35.9677067 L168.121581,35.9677067 L168.121581,46.1443446 C168.121581,48.6261333 170.167012,50.6377628 172.689951,50.6377628 L172.689951,50.6377628 L201.871595,50.6377628 L201.871595,50.6377628 Z M201.757855,12.510247 L170.523204,12.510247 L170.523204,12.5151389 C168.922122,12.5151389 168.120751,13.3342478 168.120751,14.9724655 L168.120751,23.5315278 L201.757855,23.5315278 C203.250061,23.5315278 204.523964,23.0102761 205.580115,21.93027 C206.635713,20.8508074 207.145274,19.5474083 207.145274,18.021159 C207.145274,16.4943662 206.598684,15.1915104 205.580115,14.1109607 C204.523964,13.0314981 203.250061,12.510247 201.757855,12.510247 Z" id="Combined-Shape"></path>
    <path d="M119.380439,0.0369899906 C124.039985,0.0369899906 128.153497,1.52628275 131.757446,4.50486801 C135.324919,7.48345326 137.618491,11.207228 138.637611,15.675106 L147.556571,56.4463928 L147.738396,57.823719 C147.738396,59.5739096 147.119411,61.0632026 145.881987,62.2921407 C144.64401,63.5205354 143.188283,64.1162498 141.513145,64.1162498 C140.020941,64.1162498 138.710563,63.6325032 137.654967,62.7014235 C136.562342,61.7708874 135.870954,60.5794516 135.543775,59.16408 L132.376436,44.8293662 L91.9686504,44.8293662 L88.8742617,59.16408 C88.5470821,60.5794516 87.8186656,61.7708874 86.6901171,62.7014235 C85.5615686,63.6325032 84.2871153,64.1162498 82.7589877,64.1162498 C81.084403,64.1162498 79.6640458,63.5205354 78.4266216,62.2921407 C77.1891975,61.0632026 76.6066852,59.5739096 76.6066852,57.823719 L76.7885131,56.4463928 L85.707472,15.7865312 C86.6901161,11.2441885 88.9836899,7.48345326 92.5876393,4.50486801 C96.1551125,1.52628275 100.268069,0.0369899906 104.891692,0.0369899906 L119.380439,0.0369899906 Z M119.266418,12.6593681 L104.777653,12.6593681 C103.176019,12.6593681 101.68326,13.2175798 100.264007,14.3720507 C98.8806764,15.525978 98.006907,16.9032986 97.6791744,18.5420603 L94.6942101,32.2440649 L129.422814,32.2440649 L126.437849,18.5420603 C126.110117,16.8293777 125.236901,15.4145531 123.853571,14.3345467 C122.470241,13.2175798 120.941004,12.6593681 119.266418,12.6593681 Z" id="Combined-Shape"></path>
    <path d="M45.8316856,0 C50.6730609,0 54.7871235,1.7496466 58.2451697,5.28698697 C61.7032158,8.82432735 63.4142755,13.0313048 63.4142755,17.9834727 C63.4142755,22.1909947 62.1038996,25.98869 59.4825934,29.3401406 C62.3012021,32.2230621 64.273676,35.5397284 64.9932503,39.2901355 L64.9932503,39.2901355 L68.7442121,56.5392905 L68.9260371,57.916612 C68.9260371,59.666802 68.3076048,61.1560944 67.0696276,62.3850321 C65.8316504,63.6139698 64.3753674,64.2091447 62.774287,64.2091447 C61.2815297,64.2091447 59.9711538,63.7253938 58.8426049,62.794858 C57.714056,61.8637787 57.0226692,60.6723474 56.6833308,59.25752 L56.6833308,59.25752 L52.8229417,41.5920161 C52.5383163,40.2733932 51.9060643,39.1162034 50.9278413,38.0900051 C49.5445123,36.6751777 47.8340032,35.9674887 45.8316856,35.9674887 L45.8316856,35.9674887 L12.1946285,35.9674887 L12.1946285,46.1446838 L12.3764556,57.879651 C12.3764556,59.629841 11.7580198,61.1191335 10.5205952,62.3480712 C9.28261801,63.5764653 7.82633718,64.1721837 6.15230458,64.1721837 C4.47716673,64.1721837 3.05736161,63.5764653 1.81993702,62.3480712 C0.582512436,61.1191335 0,59.629841 0,57.879651 L0,57.879651 L0.0138167101,5.58375806 C0.0138167101,2.51983852 2.53951091,0.0369605351 5.65379745,0.0369605351 L5.65379745,0.0369605351 Z M45.7178658,12.5100812 L14.4838013,12.5100812 L14.4838013,12.514973 C12.8821677,12.514973 12.0807982,13.334082 12.0807982,14.9722996 L12.0807982,23.5313619 L45.7178658,23.5313619 C47.210071,23.5313619 48.484525,23.0101102 49.540122,21.9301041 C50.5957189,20.8506415 51.1052798,19.5472424 51.1052798,18.0209931 C51.1052798,16.4942004 50.5592428,15.1913445 49.540122,14.1107948 C48.484525,13.0313322 47.210071,12.5100812 45.7178658,12.5100812 Z" id="Combined-Shape"></path>
    <path d="M432.030115,4.54256464 C435.597584,7.52060476 437.890601,11.2813387 439.153998,16.9194496 L448,56.6112491 L447.938102,56.8928042 C447.938102,58.6429939 447.319662,60.1322819 446.081687,61.3612194 C444.843712,62.5901568 443.387431,63.1853316 441.786354,63.1853316 C440.293599,63.1853316 438.983225,62.701585 437.854678,61.7710493 C436.726131,60.8399702 436.034743,59.6479915 435.669982,58.2337078 L426.751592,18.5794126 C426.42386,16.866727 425.550092,15.4518992 424.166765,14.3718909 C422.783438,13.254922 421.25421,12.6967089 419.58018,12.6967089 L408.477089,12.701058 C406.875459,12.701058 406.074644,13.5201681 406.074644,15.1589326 L406.074644,56.8558433 C406.074644,58.6060329 405.455656,60.0953251 404.217681,61.3242626 C402.980258,62.5526565 401.52398,63.1483706 399.849398,63.1483706 C398.175368,63.1483706 396.755014,62.5526565 395.517592,61.3242626 C394.280169,60.0953251 393.697104,58.6060329 393.697104,56.8558433 L393.697658,15.1589326 C393.697658,13.5201681 392.896843,12.701058 391.295213,12.701058 L373.807709,12.701058 C372.205526,12.701058 371.405263,13.5201681 371.405263,15.1589326 L371.403605,56.8558433 C371.403605,58.6060329 370.821647,60.0953251 369.620148,61.3242626 C368.418649,62.5526565 366.96237,63.1483706 365.251312,63.1483706 C363.540806,63.1483706 362.048604,62.5526565 360.847105,61.3242626 C359.60913,60.0953251 359.027171,58.6060329 359.027171,56.8558433 L359.040988,5.62094247 C359.040988,2.55702349 361.566125,0.0741458556 364.680959,0.0741458556 L419.652578,0.0741458556 C424.31267,0.0741458556 428.426171,1.56343753 432.030115,4.54256464 Z" id="Fill-21"></path>
</svg>
