<?xml version="1.0" encoding="UTF-8"?>
<svg width="100px" height="100px" viewBox="0 0 100 100" version="1.1" xmlns="http://www.w3.org/2000/svg" xmlns:xlink="http://www.w3.org/1999/xlink">
    <title>QQQQQQ</title>
    <defs>
        <linearGradient x1="56.5300708%" y1="94.5778798%" x2="66.5251332%" y2="38.472394%" id="linearGradient-1">
            <stop stop-color="#FF5858" offset="0%"></stop>
            <stop stop-color="#F857A6" offset="100%"></stop>
        </linearGradient>
    </defs>
    <g id="QQQQQQ" stroke="none" stroke-width="1" fill="none" fill-rule="evenodd">
        <g id="Fill-2" transform="translate(0.000000, 0.000000)" fill="url(#linearGradient-1)">
            <path d="M29.8577686,4.24133251 C42.6877204,-1.4137775 57.3085627,-1.4137775 70.1422318,4.24133251 C82.9771406,9.90078072 92.8385512,20.6929006 97.3215981,33.9838025 C97.5007241,34.3130445 97.6314412,34.6664796 97.7089017,35.0296089 C100.763699,44.7756099 100.763699,55.2240202 97.7089017,64.970393 C97.6314412,65.3383563 97.5007241,65.6869723 97.3215981,66.016202 C92.8375596,79.3071039 82.975901,90.0987238 70.1422318,95.7586675 C57.3073231,101.413778 42.6877204,101.413778 29.8577686,95.7586675 C17.0228599,90.0992193 7.16144708,79.3071039 2.67840018,66.016202 C2.49927413,65.6869599 2.36855789,65.3383686 2.2910973,64.970393 C-0.763699101,55.224392 -0.763699101,44.7759817 2.2910973,35.0296089 C2.36855789,34.6664796 2.49927413,34.3130322 2.67840018,33.9838025 C7.1624386,20.6929006 17.0240995,9.90127621 29.8577686,4.24133251 Z M68.8315252,68.0059479 L31.1757672,68.0059479 C34.5976661,82.1731599 41.8358306,92.2439025 50.0030264,92.2439025 L50.0030264,92.2439025 C58.1612992,92.2439025 65.4135924,82.1967098 68.8315252,68.0059479 L68.8315252,68.0059479 Z M23.216195,68.0203138 L11.8439901,68.0203138 L12.0992021,68.5496351 C16.1584534,76.8098254 22.800526,83.5347541 31.0203798,87.7019554 C27.248979,81.664467 24.6056521,74.9972007 23.216195,68.0203138 L23.216195,68.0203138 Z M88.1817204,68.0203138 L76.8046822,68.0203138 C75.4200587,74.9973251 72.7767316,81.6643433 69.0053308,87.7019554 L69.005,87.7 L69.5275018,87.4324702 C77.5065629,83.2474211 83.9488469,76.63394 87.9258551,68.549627 L88.1817204,68.0203138 Z M70.2544885,39.7457202 L29.7618136,39.7457202 C28.8516456,46.5578808 28.8516456,53.4616389 29.7618136,60.2739238 L29.7618136,60.2739238 L70.2544885,60.2843359 C70.699893,56.8806107 70.9225955,53.4477574 70.932275,50.0150281 C70.9225831,46.5773411 70.699893,43.1494455 70.2544885,39.7457202 L70.2544885,39.7457202 Z M21.9184617,39.7307014 L9.06496646,39.7307014 C8.20805411,43.090921 7.76749426,46.5381523 7.75297009,50.0000092 L7.75297009,50.0000092 L7.76259548,50.7409392 C7.83253532,53.9531071 8.26926214,57.1477933 9.06496646,60.2589049 L9.06496646,60.2589049 L21.9184617,60.2589049 C21.13901,53.4417864 21.13901,46.5526543 21.9184617,39.7307014 L21.9184617,39.7307014 Z M90.9404212,39.7306681 L78.0968361,39.7300484 C78.484139,43.1386077 78.6777905,46.5616686 78.6777905,49.9895639 C78.6777905,53.4224169 78.484139,56.8503125 78.0968361,60.2588718 L78.0968361,60.2588718 L90.9404212,60.2588718 C92.6881798,53.5297561 92.6881798,46.4654854 90.9404212,39.7306681 L90.9404212,39.7306681 Z M50.0029601,7.74645504 C41.8350202,7.74645504 34.6020613,17.8072815 31.1744613,31.9844096 L31.1744613,31.9844096 L68.8302194,31.9844096 C65.4083205,17.8171976 58.1751136,7.74645504 50.0029601,7.74645504 L50.0029601,7.74645504 Z M69.004959,12.3076106 C72.7714025,18.340141 75.4098958,25.0074066 76.7896857,31.9842935 L76.7896857,31.9842935 L88.1668483,31.9842935 C84.1339403,23.4822313 77.39487,16.5586417 69.004959,12.3076106 Z M31.02,12.308 L30.4981941,12.5767923 C22.3411398,16.8481665 15.7930389,23.6593576 11.8442713,31.9842935 L11.8442713,31.9842935 L23.2164769,31.9842935 C24.6011003,25.0072822 27.2444272,18.340389 31.0206616,12.3076106 L31.02,12.308 Z" id="Fill-1"></path>
        </g>
    </g>
</svg>
