<?xml version="1.0" encoding="UTF-8"?>
<svg width="210px" height="120px" viewBox="0 0 210 120" version="1.1" xmlns="http://www.w3.org/2000/svg" xmlns:xlink="http://www.w3.org/1999/xlink">
    <path d="M75,0 L195,0 C203.284271,0 210,6.71572924 210,15 C210,23.2842708 203.284271,30 195,30 L75,30 C66.7157292,30 60,23.2842708 60,15 C60,6.71572924 66.7157292,0 75,0 Z M15,30 C6.71572834,30 0,23.2842717 0,15 C0,6.71572834 6.71572834,0 15,0 C23.2842717,0 30,6.71572834 30,15 C30,23.2842717 23.2842717,30 15,30 Z M75,90 L195,90 C203.284271,90 210,96.7157292 210,105 C210,113.284271 203.284271,120 195,120 L75,120 C66.7157292,120 60,113.284271 60,105 C60,96.7157292 66.7157292,90 75,90 Z M15,120 C6.71572834,120 0,113.284272 0,105 C0,96.7157283 6.71572834,90 15,90 C23.2842717,90 30,96.7157283 30,105 C30,113.284272 23.2842717,120 15,120 Z" id="Vector" />
</svg>
