<?xml version="1.0" encoding="UTF-8"?>
<svg width="100px" height="100px" viewBox="0 0 100 100" version="1.1" xmlns="http://www.w3.org/2000/svg" xmlns:xlink="http://www.w3.org/1999/xlink">
    <title>QQQQQQ</title>
    <defs>
        <linearGradient x1="54.1792604%" y1="94.5778798%" x2="60.5761233%" y2="38.472394%" id="linearGradient-1">
            <stop stop-color="#FF5858" offset="0%"></stop>
            <stop stop-color="#F857A6" offset="100%"></stop>
        </linearGradient>
    </defs>
    <g id="QQQQQQ" stroke="none" stroke-width="1" fill="none" fill-rule="evenodd">
        <path d="M18.2827061,15.7635142 C26.8782586,4.46177771 40.7533026,-1.42140531 54.7761106,0.293506424 C62.2749066,1.15296241 69.3637574,4.19606031 75.1741838,9.05187665 L75.1741838,9.05187665 C82.378661,15.0522678 87.3291348,22.5841576 89.2427063,31.8933638 L89.2427063,31.8933638 C91.0629746,40.6598367 89.5755154,49.7936307 85.0704861,57.5089334 C82.5139341,62.1186337 78.9541373,65.8610791 75.254817,69.5097169 C67.0737714,77.5102382 58.8931197,85.631862 52.7534676,95.5114056 L52.7534676,95.5114056 L49.9567413,100 C47.7564862,96.2384558 45.3549269,92.6015195 42.7673364,89.1012905 C39.1846332,84.4872899 35.31495,80.1081056 31.1740518,75.9984379 C27.7029082,72.4782085 24.1120729,68.9975828 20.7033038,65.3957483 C15.0986427,59.633373 11.4690352,52.2109861 10.3495706,44.2143654 C8.93955093,33.6166747 11.8370336,24.1546611 18.2827061,15.7635142 Z M50.5948683,24 C45.9682447,23.9731633 41.5193886,25.780023 38.2234008,29.0259922 C34.927413,32.2718622 33.0511732,36.6901164 33.0008832,41.3173534 C32.9544357,45.9448875 34.7417225,50.4018678 37.9680886,53.7137012 C41.1986142,57.0292983 45.6087471,58.9289524 50.2355689,58.9985903 L50.2355689,58.9985903 L50.6598956,58.9984142 C55.1846696,58.9376514 59.5205429,57.1313152 62.7542015,53.9461562 C66.088912,50.6649275 67.976779,46.188634 68,41.5072201 C68.0038552,36.8798843 66.1740818,32.4422181 62.9128554,29.1613855 C59.6472714,25.880553 55.2216901,24.0235172 50.5948683,24 Z" id="Fill-1" fill="url(#linearGradient-1)"></path>
    </g>
</svg>
