<?xml version="1.0" encoding="UTF-8"?>
<svg width="234px" height="240px" viewBox="0 0 234 240" version="1.1" xmlns="http://www.w3.org/2000/svg" xmlns:xlink="http://www.w3.org/1999/xlink">
    <path d="M209.643948,221 C208.760282,221 207.876616,220.941176 207.048179,220.823529 C205.612221,220.647059 204.231493,220.352944 202.905993,219.941179 C203.623972,213.823532 203.458284,208.117647 202.685076,202.823529 L202.685076,202.823529 C199.150411,195.529411 193.682726,189.470589 187,185.411765 C188.325499,181.82353 190.424207,178.647059 193.019977,176 C197.383079,171.647059 203.237367,169 209.643948,169 C223.064629,169.117647 234,180.705883 234,195.058824 C234,209.352942 223.064629,221 209.643948,221 Z" id="Path" fill-rule="nonzero"/>
    <path d="M153.591357,161.265081 C122.66749,161.265081 97.545267,187.925097 96.9432094,221 C89.3353908,210.288911 82.9316873,198.57734 78.060494,185.982982 C75.1596709,178.567612 72.8061729,170.916832 71,162.971793 L71,162.854091 C71,162.893324 71,162.932558 71,162.971793 C73.353498,129.89689 87.5839506,112.241245 121.244445,100 C118.836214,104.355059 118.635528,108.435474 120.642385,112.241245 C122.941151,112.594358 133.723457,114.124514 135.420164,114.536479 C141.933333,116.184339 148.172837,118.538424 154.029216,121.598736 C167.43868,128.543288 178.877783,139.313231 187.525519,152.142998 C188.182307,153.006162 189.003293,154.261675 189.988478,155.909535 C193.874486,162.265566 201.372839,175.978115 204,194.339984 C198.909877,183.80545 191.083128,174.97763 181.504938,169.151268" id="Path" fill-rule="nonzero"/>
    <path d="M47.4785698,0 C67.685711,0 86.3047574,7.17132628 101.309519,19.2215056 C101.692852,19.5741938 102.130951,19.8681012 102.514285,20.2207894 C105.580951,22.8071694 108.483329,25.5111113 111.221424,28.5089608 C111.604757,28.861649 111.933332,29.2731187 112.261904,29.6258069 C115.273808,29.9784951 118.285703,30.6250911 121.133322,31.4480302 C134.714274,35.4451631 146.214275,44.6738358 153.716656,57.0179216 C157.057132,62.4845883 159.576191,68.5978478 161,75.1225794 C155.030952,84.0573469 146.761897,91.169892 137.178564,95.5197131 C135.809516,96.1663081 134.440468,96.69534 133.016658,97.2243723 C128.854754,98.4587809 124.911896,99.7519757 121.188087,101.103947 C87.5095162,113.330471 73.2714285,130.964875 70.9166667,164 L70.9166667,164 L70.9166667,163.882447 C68.5801588,153.301802 67.2293643,143.367752 66.8642832,134.080296 C66.7547594,132.199292 66.6999973,130.259495 66.6999973,128.31971 L66.6999973,128.31971 L66.6999973,125.968458 C66.6999973,109.979926 68.8904766,94.6379934 72.9976192,80.1189965 C77.1047619,65.4236553 83.1833277,51.6688187 90.904756,39.1483885 C87.0714227,43.4982095 83.5118982,47.3777799 79.0761842,50.5519735 C63.7428509,63.6602178 44.3023784,71.5369167 23.1642842,71.5369167 C15.1690466,71.5369167 7.39285653,70.4200718 0,68.3039426 C6.07857139,62.6021505 12.5404754,57.4881725 19.3857134,52.903226 C41.8380931,37.9139783 68.3976189,29.2731183 96.7642845,29.2731183 C68.0142863,29.2731183 41.1809512,20.3971328 18.5642856,5.11397848 C27.6547612,1.82222214 37.3476179,0 47.4785698,0 Z M128.799825,56.1360983 C126.718872,52.9618981 123.268874,51.7862684 121.078398,53.43215 C118.887922,55.0780315 118.778398,58.9576091 120.85935,62.1318092 C122.940302,65.3060094 126.390301,66.4816393 128.580777,64.8357578 C130.771253,63.1898762 130.826015,59.2515169 128.799825,56.1360983 Z" id="Shape" />
    <path d="M203.710751,223.69747 C202.891298,229.28859 201.634808,234.762003 199.995902,240 L62,240 C71.0686137,229.818276 83.3604111,222.991225 97.1272224,221.519878 C97.1818526,221.519878 97.236483,221.519878 97.2911132,221.519878 C97.236483,221.461024 97.1818516,221.40217 97.1818516,221.343316 C97.7827838,188.267426 122.85805,161.60661 153.724114,161.60661 C164.431634,161.783171 180.001239,142.479092 161.15382,126 C169.730762,131.237997 179.291042,139.712958 190.162453,155.897781 C195.625473,163.843057 202.071845,181.263812 204.038533,194.623647 L204.038533,194.623647 C205.076507,202.156946 205.404288,210.514201 204.366314,219.342286 C204.202424,220.813633 203.983902,222.226122 203.710751,223.69747 Z" id="Path" fill-rule="nonzero"/>
</svg>
