<?xml version="1.0" encoding="UTF-8"?>
<svg width="100px" height="100px" viewBox="0 0 100 100" version="1.1" xmlns="http://www.w3.org/2000/svg" xmlns:xlink="http://www.w3.org/1999/xlink">
    <defs>
        <rect id="path-1" x="0" y="0" width="100" height="100" />
    </defs>
        <g id="Search---Active">
            <mask id="mask-2" fill="white">
                <use xlink:href="#path-1" />
            </mask>
            <g id="Search---Active-(Background/Mask)" />
            <path d="M34.344381,0.0791446992 C31.9301915,0.197861748 29.4764246,0.633157593 27.0622351,1.26631519 C7.5508358,6.48986566 -3.96603719,26.4739008 1.25811069,45.9434975 C6.48225857,65.4130943 26.4685797,76.9682186 45.9404031,71.7446681 C65.4122266,66.5211176 76.9686724,46.5370851 71.7445245,27.0674883 C67.391068,10.8032518 52.7476269,0.0791446992 36.7189913,0 C35.9274537,0 35.1359185,0 34.344381,0.0791446992 Z" id="Vector" fill="#FFFFFF" fill-rule="nonzero" mask="url(#mask-2)" />
            <path d="M34.9923766,11.039666 C33.3260566,11.1586642 31.6200615,11.4363269 29.9140671,11.8726536 C16.3057864,15.5219319 8.25190711,29.4843879 11.8622673,43.0898494 C15.5123018,56.6953109 29.4776503,64.7475232 43.085931,61.137911 C56.6942117,57.4886327 64.7480925,43.5261757 61.1377323,29.9207142 C58.0828123,18.5762193 47.8865199,11.0793321 36.658697,11 C36.103257,11 35.5478167,11 34.9923766,11.039666 Z" id="Vector" fill="#FB4274" fill-rule="nonzero" opacity="0.899999976" mask="url(#mask-2)" />
            <path d="M34.9923766,11.039666 C33.3260566,11.1586642 31.6200615,11.4363269 29.9140671,11.8726536 C16.3057864,15.5219319 8.25190711,29.4843879 11.8622673,43.0898494 C15.5123018,56.6953109 29.4776503,64.7475232 43.085931,61.137911 C56.6942117,57.4886327 64.7480925,43.5261757 61.1377323,29.9207142 C58.0828123,18.5762193 47.8865199,11.0793321 36.658697,11 C36.103257,11 35.5478167,11 34.9923766,11.039666 Z" id="Vector" fill="#FFFFFF" fill-rule="nonzero" opacity="0.699999988" mask="url(#mask-2)" />
            <path d="M62,64.1873336 L71.6539479,73.8513851 C71.9320452,73.4139178 72.2498703,73.0162236 72.647152,72.6582957 C73.0047056,72.3003679 73.4417126,71.9424402 73.8389944,71.6640519 L64.1850466,62 C63.4699394,62.7556254 62.7548354,63.4714779 62,64.1873336 Z M76.1034998,72.8969126 C76.0637716,72.8969126 76.0637772,72.896913 76.0240491,72.9366827 C75.3486701,73.1753012 74.7130147,73.6127669 74.1568202,74.1695435 C73.6006257,74.72632 73.2033453,75.3626401 72.925248,76.038726 C72.925248,76.0784957 72.9252477,76.0784901 72.8855195,76.1182598 C72.1704123,78.0669778 72.5676932,80.2940874 74.1568202,81.8848777 L84.3669608,92.1057035 L92.0742272,84.390368 L81.8640879,74.1695435 C80.7914271,73.0559903 79.4009434,72.5389835 78.0104572,72.5389835 C77.3748064,72.5389835 76.6994225,72.6582941 76.1034998,72.8969126 Z M85.8369055,93.5771887 L88.0219513,95.7645207 L95.7292202,88.0491877 L93.5441744,85.8618532 L85.8369055,93.5771887 Z M89.5316258,97.2360059 L90.6837396,98.3893251 C92.8290611,100.536892 96.245687,100.536892 98.3910086,98.3893251 C100.53633,96.2417582 100.53633,92.8215566 98.3910086,90.6739896 L97.2388948,89.5206704 L89.5316258,97.2360059 Z" id="Vector" fill="#FFFFFF" mask="url(#mask-2)" />
            <path d="M37.9091468,15.1106169 C39.4352248,15.2581062 40.9211414,15.5162126 42.3668995,15.9218081 C42.8488189,16.0692974 43.089777,16.5117653 42.9692972,16.9173609 C42.8086574,17.3598288 42.32674,17.5810631 41.8849806,17.4704461 C40.5195424,17.1017228 39.1541053,16.8436164 37.7485072,16.6961271 C36.3429091,16.5486378 34.9373101,16.548637 33.531712,16.6592539 C32.1261139,16.7698709 30.7205164,17.0279783 29.3550782,17.3967015 C27.98964,17.7654248 26.6242016,18.2447653 25.3390834,18.8715949 C24.857164,19.1297012 24.2949249,18.9822104 24.0941252,18.5766148 C23.8933254,18.1710192 24.013804,17.69168 24.4555634,17.4704461 C25.8611615,16.8067442 27.3069195,16.2536591 28.7928375,15.8849358 C30.2787556,15.4793403 31.8048335,15.2212338 33.3309115,15.1106169 C34.0939505,15.0368722 34.8569883,15 35.6200272,15 C36.3830662,15 37.1461078,15.0368722 37.9091468,15.1106169 Z" id="Vector" fill="#FFFFFF" fill-rule="nonzero" mask="url(#mask-2)" />
            <path d="M47.1911134,17.1111757 C47.80234,17.4447056 48.4135666,17.8152951 48.9888387,18.2229429 C49.5641107,18.6305906 50.1393805,19.0382379 50.6786981,19.5200034 C51.0382432,19.7794156 51.110152,20.2982397 50.822516,20.6688286 C50.5708345,21.0394174 50.0674733,21.113535 49.7079283,20.817064 L49.671973,20.780006 C49.1686099,20.3352994 48.6292936,19.9647099 48.0899761,19.5941211 C47.5506585,19.2235323 47.0113408,18.8900024 46.4360687,18.5935313 C46.0405692,18.371178 45.8967498,17.8894136 46.0765223,17.4817659 C46.2203403,17.1482359 46.5079757,17 46.7956117,17 C46.9394297,17 47.0472954,17.0370579 47.1911134,17.1111757 Z" id="Vector" fill="#FFFFFF" fill-rule="nonzero" mask="url(#mask-2)" />
        </g>
</svg>
