<?xml version="1.0" encoding="UTF-8"?>
<svg width="280px" height="280px" viewBox="0 0 280 280" version="1.1" xmlns="http://www.w3.org/2000/svg" xmlns:xlink="http://www.w3.org/1999/xlink">
    <defs>
        <linearGradient x1="87.9033838%" y1="9.29014082%" x2="9.30260675%" y2="12.0953192%" id="linearGradient-1">
            <stop stop-color="#FF9D8B" offset="4.89000008%" />
            <stop stop-color="#FA166A" offset="48.8900006%" />
            <stop stop-color="#F5166A" offset="56.7499995%" />
            <stop stop-color="#E8166A" offset="65.4999971%" />
            <stop stop-color="#D2166A" offset="74.6900022%" />
            <stop stop-color="#B3166A" offset="84.1700017%" />
            <stop stop-color="#8B166A" offset="93.7900007%" />
            <stop stop-color="#73166A" offset="98.8300025%" />
        </linearGradient>
    </defs>
    <g stroke="none" stroke-width="1" fill="none" fill-rule="evenodd">
        <g id="Search" fill="url(#linearGradient-1)">
            <path d="M109.508735,0 C138.759598,0 166.127914,11.5093205 186.982143,32.0477695 C207.521215,52.8892429 219.029913,80.2690735 219.029913,109.508735 C219.029913,134.397791 210.619902,158.047997 195.380333,177.334526 L195.380333,177.334526 L280,261.954193 L261.954193,280 L261.954193,280 L259.493779,277.539224 C257.324334,275.36946 255.201797,273.24661 253.126166,271.170674 L251.578238,269.622519 C249.782582,267.826599 248.02284,266.066599 246.299011,264.342516 L240.529461,258.572117 C240.294927,258.337548 240.061125,258.103712 239.828056,257.870609 L237.066412,255.108559 C234.794358,252.836171 232.595597,250.637086 230.470127,248.511304 L226.723438,244.764064 C226.112182,244.152718 225.507523,243.54797 224.909459,242.949819 L218.596815,236.636246 C218.413585,236.452989 218.231088,236.270465 218.049324,236.088674 L214.856722,232.895603 C214.164845,232.203624 213.484695,231.523374 212.816271,230.854852 L207.567828,225.605637 C206.963901,225.001621 206.371701,224.409335 205.791228,223.828776 L204.929314,222.966735 C204.502754,222.540113 204.082791,222.120087 203.669423,221.706659 L203.669423,221.706659 L200.982189,219.01903 C200.385026,218.421779 199.764536,217.801198 199.120719,217.157286 L197.530772,215.567106 C197.394544,215.430858 197.257384,215.293677 197.11929,215.155562 L194.532826,212.568719 C193.935663,211.971468 193.323571,211.359285 192.69655,210.732172 L191.744821,209.780303 C191.263358,209.298769 190.773497,208.808837 190.275239,208.310506 L186.650272,204.685005 C185.21708,203.251603 183.724172,201.758475 182.171548,200.205623 L179.190397,197.224034 C178.580171,196.613718 177.961547,195.995003 177.334526,195.367889 C158.048619,210.619902 134.397791,219.017469 109.508735,219.017469 C80.2703152,219.017469 52.5862186,207.508149 32.0477695,186.9697 C11.508698,166.128227 0,138.748396 0,109.508735 C0,80.2703152 11.5093205,52.5740855 32.0477695,32.0477695 C52.8892429,11.508698 80.2690735,0 109.508735,0 Z M111.428571,28.5714286 C89.3022095,28.5714286 68.4277508,37.1548684 52.7586995,52.8117887 C20.5090038,85.0365167 20.5090038,137.820625 52.7586995,170.045352 C68.4166937,185.689998 89.3022095,194.285714 111.428571,194.285714 C133.554933,194.285714 154.429395,185.702273 170.098447,170.045352 C202.348142,137.820595 202.348142,85.0365167 170.098447,52.8117887 C154.428166,37.1671435 133.54019,28.5714286 111.428571,28.5714286 Z" id="Fill-1" />
        </g>
    </g>
</svg>
