<?xml version="1.0" encoding="UTF-8"?>
<svg width="100px" height="100px" viewBox="0 0 100 100" version="1.1" xmlns="http://www.w3.org/2000/svg" xmlns:xlink="http://www.w3.org/1999/xlink">
    <title>QQQQQQQQQQQQQQQQQQQQQQQQQQQQQQQQ</title>
    <defs>
        <rect id="path-1" x="0" y="0" width="100" height="100"></rect>
    </defs>
    <g id="QQQQQQQQQQQQQQQQQQQQQQQQQQQQQQQQ" stroke="none" stroke-width="1" fill="none" fill-rule="evenodd">
        <g id="Search---Inactive">
            <mask id="mask-2" fill="white">
                <use xlink:href="#path-1"></use>
            </mask>
            <g id="Search---Inactive-(Background/Mask)"></g>
            <path d="M34.344381,0.0791446992 C31.9301915,0.197861748 29.4764246,0.633157593 27.0622351,1.26631519 C7.5508358,6.48986566 -3.96603719,26.4739008 1.25811069,45.9434975 C6.48225857,65.4130943 26.4685797,76.9682186 45.9404031,71.7446681 C65.4122266,66.5211176 76.9686724,46.5370851 71.7445245,27.0674883 C67.391068,10.8032518 52.7476269,0.0791446992 36.7189913,0 C35.9274537,0 35.1359185,0 34.344381,0.0791446992 Z" id="Vector" fill="#000445" fill-rule="nonzero" opacity="0.25" mask="url(#mask-2)"></path>
            <path d="M34.9923766,11.039666 C33.3260566,11.1586642 31.6200615,11.4363269 29.9140671,11.8726536 C16.3057864,15.5219319 8.25190711,29.4843879 11.8622673,43.0898494 C15.5123018,56.6953109 29.4776503,64.7475232 43.085931,61.137911 C56.6942117,57.4886327 64.7480925,43.5261757 61.1377323,29.9207142 C58.0828123,18.5762193 47.8865199,11.0793321 36.658697,11 C36.103257,11 35.5478167,11 34.9923766,11.039666 Z" id="Vector" fill="#FFFFFF" fill-rule="nonzero" mask="url(#mask-2)"></path>
            <path d="M34.9923766,11.039666 C33.3260566,11.1586642 31.6200615,11.4363269 29.9140671,11.8726536 C16.3057864,15.5219319 8.25190711,29.4843879 11.8622673,43.0898494 C15.5123018,56.6953109 29.4776503,64.7475232 43.085931,61.137911 C56.6942117,57.4886327 64.7480925,43.5261757 61.1377323,29.9207142 C58.0828123,18.5762193 47.8865199,11.0793321 36.658697,11 C36.103257,11 35.5478167,11 34.9923766,11.039666 Z" id="Vector" fill="#000445" fill-rule="nonzero" opacity="0.100000001" mask="url(#mask-2)"></path>
            <path d="M62,64.1873335 L71.653948,73.8513853 C71.9320453,73.413918 72.2498707,73.0162235 72.6471524,72.6582957 C73.004706,72.3003679 73.4417129,71.9424401 73.8389947,71.6640518 L64.1850467,62 C63.4699395,62.7556253 62.7548353,63.4714779 62,64.1873335 Z M76.1034995,72.8969121 C76.0637713,72.8969121 76.0637771,72.896913 76.0240489,72.9366828 C75.3486699,73.1753013 74.7130143,73.6127665 74.1568198,74.1695431 C73.6006253,74.7263197 73.2033457,75.3626406 72.9252485,76.0387264 C72.9252485,76.0784962 72.9252475,76.0784904 72.8855194,76.1182602 C72.1704122,78.0669783 72.5676927,80.2940875 74.1568198,81.8848778 L84.3669599,92.1057038 L92.0742282,84.3903691 L81.8640881,74.1695431 C80.7914273,73.0559899 79.4009439,72.5389837 78.0104577,72.5389837 C77.3748069,72.5389837 76.6994222,72.6582936 76.1034995,72.8969121 Z M85.8369057,93.5771881 L88.0219524,95.7645216 L95.7292207,88.0491869 L93.544174,85.8618533 L85.8369057,93.5771881 Z M89.5316273,97.2360059 L90.6837405,98.3893248 C92.8290621,100.536892 96.2456872,100.536892 98.3910088,98.3893248 C100.53633,96.2417579 100.53633,92.821557 98.3910088,90.6739901 L97.2388956,89.5206712 L89.5316273,97.2360059 Z" id="Vector" fill="#000445" opacity="0.25" mask="url(#mask-2)"></path>
            <path d="M37.9091468,15.1106169 C39.4352248,15.2581062 40.9211414,15.5162126 42.3668995,15.9218081 C42.8488189,16.0692974 43.089777,16.5117653 42.9692972,16.9173609 C42.8086574,17.3598288 42.32674,17.5810631 41.8849806,17.4704461 C40.5195424,17.1017228 39.1541053,16.8436164 37.7485072,16.6961271 C36.3429091,16.5486378 34.9373101,16.548637 33.531712,16.6592539 C32.1261139,16.7698709 30.7205164,17.0279783 29.3550782,17.3967015 C27.98964,17.7654248 26.6242016,18.2447653 25.3390834,18.8715949 C24.857164,19.1297012 24.2949249,18.9822104 24.0941252,18.5766148 C23.8933254,18.1710192 24.013804,17.69168 24.4555634,17.4704461 C25.8611615,16.8067442 27.3069195,16.2536591 28.7928375,15.8849358 C30.2787556,15.4793403 31.8048335,15.2212338 33.3309115,15.1106169 C34.0939505,15.0368722 34.8569883,15 35.6200272,15 C36.3830662,15 37.1461078,15.0368722 37.9091468,15.1106169 Z" id="Vector" fill="#FFFFFF" fill-rule="nonzero" mask="url(#mask-2)"></path>
            <path d="M47.1911134,17.1111757 C47.80234,17.4447056 48.4135666,17.8152951 48.9888387,18.2229429 C49.5641107,18.6305906 50.1393805,19.0382379 50.6786981,19.5200034 C51.0382432,19.7794156 51.110152,20.2982397 50.822516,20.6688286 C50.5708345,21.0394174 50.0674733,21.113535 49.7079283,20.817064 L49.671973,20.780006 C49.1686099,20.3352994 48.6292936,19.9647099 48.0899761,19.5941211 C47.5506585,19.2235323 47.0113408,18.8900024 46.4360687,18.5935313 C46.0405692,18.371178 45.8967498,17.8894136 46.0765223,17.4817659 C46.2203403,17.1482359 46.5079757,17 46.7956117,17 C46.9394297,17 47.0472954,17.0370579 47.1911134,17.1111757 Z" id="Vector" fill="#FFFFFF" fill-rule="nonzero" mask="url(#mask-2)"></path>
        </g>
    </g>
</svg>
