<?xml version="1.0" encoding="UTF-8"?>
<svg width="15px" height="14px" viewBox="0 0 15 14" version="1.1" xmlns="http://www.w3.org/2000/svg" xmlns:xlink="http://www.w3.org/1999/xlink">
    <title>CB6B4A84-F42D-44A8-B435-EBE47A21ADC4</title>
    <defs>
        <linearGradient x1="83.7746742%" y1="5.29904797%" x2="7.54661937%" y2="14.790451%" id="linearGradient-1">
            <stop stop-color="#FF9D8B" offset="0%"></stop>
            <stop stop-color="#FA166A" offset="48.8900006%"></stop>
            <stop stop-color="#F5166A" offset="56.7499995%"></stop>
            <stop stop-color="#E8166A" offset="65.4999971%"></stop>
            <stop stop-color="#D2166A" offset="74.6900022%"></stop>
            <stop stop-color="#B3166A" offset="84.1700017%"></stop>
            <stop stop-color="#8B166A" offset="93.7900007%"></stop>
            <stop stop-color="#73166A" offset="100%"></stop>
        </linearGradient>
    </defs>
    <g id="Page-1" stroke="none" stroke-width="1" fill="none" fill-rule="evenodd">
        <g id="6.0.6-Profile---Refer-A-Friend" transform="translate(-248.000000, -505.000000)" fill="url(#linearGradient-1)">
            <g id="Registratiecode" transform="translate(18.000000, 463.000000)">
                <g id="Watsapp" transform="translate(220.000000, 37.000000)">
                    <path d="M17.6548182,5 C19.4350484,5.000702 21.1059265,5.69373174 22.36234,6.95161299 C23.6187534,8.20946237 24.3103157,9.88145759 24.3096457,11.6595819 C24.3081778,15.3288198 21.3225563,18.3142495 17.6549139,18.3142495 L17.6549139,18.3142495 C16.5383887,18.3138666 15.444009,18.0344086 14.4719996,17.504242 L14.4719996,17.504242 L10.9442139,18.4296646 L11.8883029,14.9812356 C11.3059333,13.9719886 10.999512,12.8271611 10.9999906,11.6542532 C11.0014585,7.98511098 13.9867927,5 17.6548182,5 Z M17.6570203,6.12402344 C14.6060493,6.12402344 12.1247481,8.6051332 12.1235352,11.6547959 C12.1231208,12.6999406 12.4155341,13.7177389 12.9692176,14.5983931 L12.9692176,14.5983931 L13.1007142,14.8076522 L12.5419572,16.8487371 L14.6354054,16.2995851 L14.8373569,16.4194671 C15.6866127,16.9234365 16.6600898,17.1900668 17.6525847,17.1904497 L17.6525847,17.1904497 C20.7034603,17.1904497 23.1847611,14.709149 23.1860056,11.659231 C23.186548,10.1813377 22.6117728,8.79160887 21.5674898,7.74614513 C20.5231748,6.70064951 19.1344031,6.12453398 17.6570203,6.12402344 Z M15.2988304,8.58105469 C15.4096501,8.58105469 15.5206293,8.58207577 15.6175047,8.58689402 C15.7195813,8.59206326 15.8566621,8.54815659 15.9916368,8.87231924 C16.1301853,9.20528875 16.46274,10.0237844 16.5043173,10.1070028 C16.5458946,10.1902213 16.5735914,10.28732 16.5181657,10.3983311 C16.4627399,10.5092146 16.435043,10.5786164 16.3518884,10.6757153 L16.3518884,10.6757153 L16.1819179,10.8799465 L16.1819179,10.8799465 L16.1024883,10.9670118 C16.019238,11.0499431 15.9325734,11.1399262 16.0295446,11.3063631 C16.1265477,11.4728638 16.460251,12.0173576 16.9545839,12.4582431 C17.5896989,13.0247858 18.1254816,13.2003486 18.2917908,13.2835989 C18.4580363,13.3668493 18.5550395,13.3529053 18.6520107,13.2419899 C18.7490457,13.1309788 19.0676878,12.7564319 19.1785394,12.5899631 C19.289391,12.4235581 19.4002427,12.4512868 19.5526716,12.5067764 C19.7051005,12.5622979 20.5225747,12.9645415 20.688852,13.047728 C20.8551294,13.1309784 20.9659812,13.1726199 21.0075266,13.2419899 C21.0491039,13.311328 21.0491041,13.6442335 20.9105556,14.0326926 C20.7719752,14.4210879 20.1076634,14.7755959 19.7881914,14.8233316 C19.5017131,14.8661534 19.1392278,14.8840226 18.7408769,14.757408 C18.4994222,14.6808266 18.1896823,14.5784944 17.7929588,14.4071755 C16.1249204,13.6868956 15.03555,12.0074019 14.9524273,11.8963908 C14.8692727,11.7854116 14.2734375,10.9947726 14.2734375,10.1763089 C14.2734375,9.35787722 14.7029953,8.95560151 14.8554242,8.7891008 C15.0078212,8.62266391 15.1879788,8.58105469 15.2988304,8.58105469 Z" id="Fill-2"></path>
                </g>
            </g>
        </g>
    </g>
</svg>