<svg width="14" height="14" viewBox="0 0 14 14" fill="none" xmlns="http://www.w3.org/2000/svg">
<g clip-path="url(#clip0)">
<path d="M13.9304 4.6531C13.8235 4.35959 13.6088 4.12519 13.3257 3.9932C12.3008 3.51529 11.1512 3.46514 10.0886 3.85186L8.97836 4.25595L5.80968 2.68769C5.70924 2.63801 5.59276 2.63153 5.48746 2.66986L3.59557 3.35847C3.4527 3.41048 3.35032 3.53722 3.32954 3.68783C3.30876 3.83844 3.37299 3.98817 3.49645 4.07693L5.50433 5.52045L2.71389 6.53606L1.67845 5.69649C1.56653 5.60576 1.41521 5.58036 1.27983 5.62966L0.270835 5.99692C0.168623 6.03413 0.0853602 6.11042 0.0393948 6.20903C-0.00657058 6.30763 -0.0114925 6.4204 0.0257228 6.52264L0.668418 8.2884C0.877545 8.86301 1.29793 9.32179 1.85214 9.58019C2.40635 9.83864 3.02799 9.86577 3.6026 9.65664L6.06089 8.76189L5.5308 10.8435C5.49328 10.9908 5.54034 11.1468 5.65305 11.2488C5.72972 11.3182 5.82822 11.3549 5.92832 11.3548C5.97538 11.3548 6.02285 11.3467 6.06854 11.3301L7.96045 10.6415C8.06578 10.6032 8.15082 10.5234 8.19583 10.4207L9.46613 7.52247L13.2315 6.15201C13.8374 5.93143 14.1509 5.25904 13.9304 4.6531ZM4.60542 3.86387L5.60309 3.50077L7.91271 4.64386L6.43728 5.18087L4.60542 3.86387ZM12.9509 5.38113L9.02061 6.81161C8.91528 6.84994 8.83024 6.92971 8.78523 7.03238L7.51494 9.93066L6.51723 10.2938L7.04733 8.2122C7.08484 8.06487 7.03778 7.90887 6.92507 7.80688C6.8484 7.7375 6.7499 7.70083 6.6498 7.70083C6.60271 7.70083 6.55524 7.70896 6.50958 7.72555L3.32202 8.88573C2.95332 9.01994 2.55442 9.00252 2.19881 8.83671C1.8432 8.67089 1.57345 8.37651 1.43927 8.00783L0.936855 6.62747L1.3422 6.47992L2.37764 7.3195C2.48953 7.4102 2.64086 7.43557 2.77626 7.38632L10.3692 4.62272C11.2259 4.31089 12.1528 4.35136 12.979 4.73666C13.0635 4.77606 13.1277 4.84604 13.1596 4.93367C13.2254 5.11458 13.1318 5.31532 12.9509 5.38113Z" fill="#1D9EF9"/>
</g>
<defs>
<clipPath id="clip0">
<rect width="14" height="14" fill="white"/>
</clipPath>
</defs>
</svg>
