<svg width="14" height="14" viewBox="0 0 14 14" fill="none" xmlns="http://www.w3.org/2000/svg">
<path d="M8.3125 3.5H7V2.625C7 1.17775 5.82225 0 4.375 0C2.92775 0 1.75 1.17775 1.75 2.625V3.5H0.4375C0.196 3.5 0 3.696 0 3.9375V12.25C0 13.2151 0.784875 14 1.75 14H4.8125C5.054 14 5.25 13.804 5.25 13.5625C5.25 13.321 5.054 13.125 4.8125 13.125H1.75C1.267 13.125 0.875 12.7321 0.875 12.25V4.375H1.75V4.8125C1.75 5.054 1.946 5.25 2.1875 5.25C2.429 5.25 2.625 5.054 2.625 4.8125V4.375H6.125V4.8125C6.125 5.054 6.321 5.25 6.5625 5.25C6.804 5.25 7 5.054 7 4.8125V4.375H7.875V4.8125C7.875 5.054 8.071 5.25 8.3125 5.25C8.554 5.25 8.75 5.054 8.75 4.8125V3.9375C8.75 3.696 8.554 3.5 8.3125 3.5ZM6.125 3.5H2.625V2.625C2.625 1.65987 3.40987 0.875 4.375 0.875C5.34013 0.875 6.125 1.65987 6.125 2.625V3.5Z" fill="#1D9EF9"/>
<path d="M13.5625 7H12.2054C12.0024 6.0025 11.1186 5.25 10.0625 5.25C9.00638 5.25 8.12262 6.0025 7.91962 7H6.5625C6.321 7 6.125 7.196 6.125 7.4375V12.25C6.125 13.2151 6.90987 14 7.875 14H12.25C13.2151 14 14 13.2151 14 12.25V7.4375C14 7.196 13.804 7 13.5625 7ZM10.0625 6.125C10.6321 6.125 11.1134 6.49163 11.2945 7H8.8305C9.01163 6.49163 9.49288 6.125 10.0625 6.125ZM13.125 12.25C13.125 12.7321 12.733 13.125 12.25 13.125H7.875C7.392 13.125 7 12.7321 7 12.25V7.875H7.875V8.3125C7.875 8.554 8.071 8.75 8.3125 8.75C8.554 8.75 8.75 8.554 8.75 8.3125V7.875H11.375V8.3125C11.375 8.554 11.571 8.75 11.8125 8.75C12.054 8.75 12.25 8.554 12.25 8.3125V7.875H13.125V12.25Z" fill="#1D9EF9"/>
</svg>
