<svg width="14" height="14" viewBox="0 0 14 14" fill="none" xmlns="http://www.w3.org/2000/svg">
<path d="M11.1814 2.14306L2.12793 11.1812L2.78732 11.8417L11.8408 2.80357L11.1814 2.14306Z" fill="#1D9EF9"/>
<path d="M2.78732 2.1432L2.12793 2.80371L11.1814 11.8418L11.8408 11.1813L2.78732 2.1432Z" fill="#1D9EF9"/>
<path d="M8.44338 8.55229C7.15757 9.83796 6.54188 11.6111 6.75436 13.4168L7.68115 13.3078C7.50227 11.7877 8.02073 10.2948 9.10324 9.21215C10.2256 8.08982 11.8259 7.569 13.3815 7.81851L13.5294 6.897C11.6785 6.59991 9.7768 7.21886 8.44338 8.55229Z" fill="#1D9EF9"/>
<path d="M6.76536 0.57312L5.83452 0.640331C5.9378 2.07254 5.40891 3.48217 4.38101 4.5101C3.37022 5.53442 2.00024 6.04871 0.526332 5.95864L0.469238 6.89026C0.600215 6.89836 0.730098 6.90224 0.859516 6.90224C2.45817 6.90224 3.93252 6.29371 5.04319 5.1678C6.26059 3.95037 6.88827 2.27568 6.76536 0.57312Z" fill="#1D9EF9"/>
<path d="M7 0C3.14021 0 0 3.14021 0 7C0 10.8598 3.14021 14 7 14C10.8598 14 14 10.8598 14 7C14 3.14021 10.8598 0 7 0ZM7 13.0667C3.65477 13.0667 0.933324 10.3452 0.933324 7C0.933324 3.65477 3.65477 0.933324 7 0.933324C10.3452 0.933324 13.0667 3.65477 13.0667 7C13.0667 10.3452 10.3452 13.0667 7 13.0667Z" fill="#1D9EF9"/>
</svg>
