<svg width="14" height="14" viewBox="0 0 14 14" fill="none" xmlns="http://www.w3.org/2000/svg">
<g clip-path="url(#clip0)">
<path d="M12.5142 0.0842546C12.5082 0.0836049 12.5021 0.0831408 12.496 0.0828623L11.1705 0.00204692C10.4038 -0.0282743 9.6999 0.42376 9.40853 1.13356L9.23072 1.60233C8.5333 1.51898 7.8317 1.47578 7.12933 1.473C6.4269 1.47331 5.72511 1.5165 5.02794 1.60233C4.55422 0.601789 3.35912 0.174723 2.35858 0.648446C1.35804 1.12217 0.930973 2.31726 1.4047 3.3178C1.72641 3.99734 2.40137 4.43965 3.15284 4.46348L4.46217 13.1923C4.51065 13.9197 6.33726 14.0006 7.12933 14.0006C7.9214 14.0006 9.73183 13.9197 9.78034 13.1923L11.316 2.7985C11.347 2.73848 11.3635 2.67208 11.3645 2.60454C11.3645 2.13577 10.7017 1.86096 9.89349 1.69933C9.92947 1.58358 9.97267 1.47021 10.0228 1.35988C10.1987 0.904135 10.6507 0.615867 11.1382 0.648632L12.4475 0.729447C12.6162 0.7473 12.7674 0.625025 12.7852 0.456371C12.7865 0.445078 12.787 0.433692 12.7869 0.422337C12.805 0.253651 12.6829 0.102293 12.5142 0.0842546ZM5.20575 2.23273C5.84448 2.16089 6.48658 2.12311 7.12933 2.11958C7.75036 2.11389 8.37117 2.14629 8.98827 2.21658L8.66498 3.04098C8.21236 3.07331 7.71125 3.10564 7.12933 3.10564C6.46492 3.1079 5.80095 3.07012 5.14109 2.9925C5.19155 2.81905 5.21875 2.63969 5.2219 2.45906C5.2219 2.37821 5.20575 2.31358 5.20575 2.23273ZM3.17658 2.31237C3.17404 2.31274 3.17153 2.31314 3.169 2.31358C3.00959 2.33774 2.89239 2.47567 2.89419 2.63687H2.87803C2.88698 2.63687 2.89419 2.64411 2.89419 2.65302V2.68535L3.05582 3.76838C2.38435 3.69524 1.87192 3.13436 1.85964 2.45906C1.85958 1.71541 2.45771 1.11007 3.2013 1.10122C3.95385 1.10116 4.56644 1.70653 4.57529 2.45906C4.57058 2.60779 4.54332 2.75494 4.49447 2.8955C3.94488 2.78235 3.60541 2.65302 3.52459 2.57221C3.50027 2.40433 3.34443 2.28802 3.17658 2.31237ZM3.75092 4.10782V4.04316L3.63777 3.33191C4.7208 3.71987 6.62822 3.7522 7.12933 3.7522C7.33948 3.7522 7.8244 3.7522 8.40632 3.70371C8.03455 4.64126 7.64659 5.61114 7.35563 6.37087H7.12933C6.38575 6.37087 4.93094 6.41935 4.15503 6.75883L3.75092 4.10782ZM7.7921 7.03364C8.47581 7.03726 9.15572 7.13518 9.81267 7.3246C9.45705 7.45393 8.69731 7.59941 7.54962 7.63174L7.7921 7.03364ZM7.097 7.01746C7 7.27608 6.90303 7.48623 6.85452 7.63171C5.64216 7.61556 4.83394 7.4539 4.46217 7.32457C4.85013 7.17912 5.73919 7.01746 7.097 7.01746ZM9.14991 13.063C8.97209 13.1762 8.27702 13.354 7.12933 13.354C5.98164 13.354 5.27039 13.1762 5.09257 13.063L4.33284 7.955C5.12491 8.22981 6.43423 8.27829 7.12933 8.27829C7.8244 8.27829 9.10142 8.24596 9.90964 7.97115L9.14991 13.063ZM10.0875 6.74268C9.55401 6.51638 8.7458 6.43554 8.03455 6.38705L9.11757 3.63908C9.61707 3.58707 10.11 3.48416 10.5886 3.33194L10.0875 6.74268ZM10.6371 2.60454C10.4593 2.71769 10.039 2.84702 9.39238 2.94398C9.48938 2.73384 9.5702 2.52369 9.65101 2.31358C9.99111 2.36658 10.3227 2.46441 10.6371 2.60454Z" fill="#1D9EF9"/>
</g>
<defs>
<clipPath id="clip0">
<rect width="14" height="14" fill="white"/>
</clipPath>
</defs>
</svg>
