<svg width="14" height="14" viewBox="0 0 14 14" fill="none" xmlns="http://www.w3.org/2000/svg">
<g clip-path="url(#clip0)">
<path d="M13.9993 4.69993C13.9356 1.51855 10.0534 -0.826047 7.00012 1.8438C3.94885 -0.824324 0.0646399 1.51699 0.000913277 4.69993C-0.022444 5.86607 0.471752 6.98883 1.43 7.94687C1.4326 7.9496 3.37511 9.88145 6.7107 13.1989C6.87075 13.3581 7.12943 13.3581 7.28954 13.1989L12.5702 7.94687C13.5285 6.98886 14.0227 5.86607 13.9993 4.69993ZM7.00012 12.3294L2.49451 7.84821H3.9361C4.08024 7.84821 4.21382 7.77259 4.28796 7.64905L4.60293 7.12425L5.77846 8.97103C5.95134 9.2427 6.35727 9.21814 6.4955 8.9264L8.11783 5.50239L9.26507 7.63247C9.33665 7.76534 9.47539 7.84824 9.62637 7.84824H11.5057L7.00012 12.3294ZM12.2995 7.0277H9.87151L8.45571 4.39902C8.297 4.10434 7.86779 4.11348 7.72357 4.41789L6.07193 7.90376L4.93888 6.12371C4.77368 5.86404 4.3963 5.87384 4.24081 6.13287L3.70379 7.02773H1.70083C1.10809 6.315 0.805318 5.52348 0.821455 4.71636C0.872683 2.15825 4.13354 0.119814 6.70996 2.69557C6.87007 2.85566 7.13006 2.85579 7.29028 2.69557C10.5798 -0.593213 15.1022 3.65826 12.2995 7.0277Z" fill="#1D9EF9"/>
</g>
<defs>
<clipPath id="clip0">
<rect width="14" height="14" fill="white"/>
</clipPath>
</defs>
</svg>
