<svg width="14" height="14" viewBox="0 0 14 14" fill="none" xmlns="http://www.w3.org/2000/svg">
<g clip-path="url(#clip0)">
<path d="M5.90625 9.89844H2.625C2.39848 9.89844 2.21484 10.0821 2.21484 10.3086C2.21484 11.4394 3.13482 12.3594 4.26562 12.3594C5.39643 12.3594 6.31641 11.4394 6.31641 10.3086C6.31641 10.0821 6.13277 9.89844 5.90625 9.89844ZM4.26562 11.5391C3.73086 11.5391 3.27471 11.1962 3.10543 10.7188H5.42579C5.25654 11.1962 4.80039 11.5391 4.26562 11.5391Z" fill="#1D9EF9"/>
<path d="M5.76952 7.16406C5.40172 7.16406 5.05596 7.30729 4.79592 7.56736C4.63574 7.72754 4.63574 7.98722 4.79592 8.1474C4.95607 8.30755 5.21578 8.30755 5.37596 8.1474C5.48107 8.04226 5.62085 7.98438 5.76952 7.98438C5.91819 7.98438 6.05797 8.04226 6.1631 8.1474C6.24319 8.22749 6.34817 8.26755 6.45311 8.26755C6.55806 8.26755 6.66306 8.22749 6.74312 8.14743C6.9033 7.98725 6.9033 7.72756 6.74312 7.56738C6.48308 7.30729 6.13732 7.16406 5.76952 7.16406Z" fill="#1D9EF9"/>
<path d="M2.76171 7.98438C2.9104 7.98438 3.05015 8.04226 3.15529 8.1474C3.23538 8.22749 3.34035 8.26755 3.4453 8.26755C3.55024 8.26755 3.65524 8.22749 3.73531 8.14743C3.89549 7.98725 3.89549 7.72756 3.73531 7.56738C3.47527 7.30729 3.12951 7.16406 2.76171 7.16406C2.3939 7.16406 2.04814 7.30729 1.7881 7.56736C1.62792 7.72754 1.62792 7.98722 1.7881 8.1474C1.94826 8.30755 2.20797 8.30755 2.36815 8.1474C2.47326 8.04226 2.61304 7.98438 2.76171 7.98438Z" fill="#1D9EF9"/>
<path d="M11.6319 2.84278C11.5267 2.94792 11.387 3.0058 11.2383 3.0058C11.0896 3.0058 10.9498 2.94792 10.8447 2.84278C10.6846 2.68263 10.4249 2.6826 10.2647 2.84278C10.1045 3.00296 10.1045 3.26264 10.2647 3.42282C10.5247 3.68289 10.8705 3.82612 11.2383 3.82612C11.6061 3.82612 11.9518 3.68289 12.2119 3.42282C12.372 3.26264 12.372 3.00296 12.2119 2.84278C12.0517 2.68263 11.792 2.68263 11.6319 2.84278Z" fill="#1D9EF9"/>
<path d="M8.62406 2.84278C8.51892 2.94792 8.37917 3.0058 8.23047 3.0058C8.08178 3.0058 7.94203 2.94792 7.83689 2.84278C7.67674 2.68263 7.41703 2.6826 7.25685 2.84278C7.09667 3.00296 7.09667 3.26264 7.25685 3.42282C7.51692 3.68289 7.86265 3.82612 8.23045 3.82612C8.59825 3.82612 8.94401 3.68289 9.20404 3.42282C9.36422 3.26264 9.36422 3.00296 9.20404 2.84278C9.04392 2.68263 8.78421 2.68263 8.62406 2.84278Z" fill="#1D9EF9"/>
<path d="M12.9712 0.559453C10.8234 -0.186484 8.64533 -0.186484 6.49759 0.559453C5.89857 0.767484 5.49609 1.33798 5.49609 1.97906V4.78579C4.00586 4.59061 2.51013 4.7501 1.02884 5.26455C0.429816 5.47258 0.0273438 6.04308 0.0273438 6.68412V9.76172C0.0273438 12.0987 1.92861 14 4.26562 14C6.60264 14 8.50391 12.0987 8.50391 9.76172V9.11337C8.90017 9.23379 9.31191 9.29491 9.73438 9.29491C12.0714 9.29491 13.9727 7.39361 13.9727 5.05662V1.97906C13.9727 1.33798 13.5702 0.767484 12.9712 0.559453ZM7.68359 9.76172C7.68359 11.6464 6.15029 13.1797 4.26562 13.1797C2.38096 13.1797 0.847656 11.6464 0.847656 9.76172V6.68412C0.847656 6.39207 1.02862 6.13298 1.29795 6.03944C2.28257 5.69748 3.27411 5.5265 4.26562 5.5265C5.25714 5.5265 6.24868 5.69748 7.2333 6.03944C7.50263 6.13298 7.68359 6.39207 7.68359 6.68412V9.76172ZM13.1523 5.05662C13.1523 6.94129 11.619 8.47459 9.73438 8.47459C9.30795 8.47459 8.89522 8.39768 8.50391 8.24619V7.38084H11.375C11.6015 7.38084 11.7852 7.1972 11.7852 6.97069C11.7852 5.83989 10.8652 4.91991 9.73438 4.91991C9.08704 4.91991 8.50921 5.2217 8.13307 5.69163C7.96671 5.50058 7.75168 5.35109 7.50241 5.26455C7.10798 5.12755 6.71251 5.01596 6.31641 4.92929V1.97906C6.31641 1.687 6.49737 1.42792 6.7667 1.33438C8.73595 0.650426 10.7328 0.650426 12.702 1.33438C12.9714 1.42792 13.1523 1.68697 13.1523 1.97906V5.05662ZM8.57418 6.56053C8.74344 6.08308 9.19961 5.74022 9.73438 5.74022C10.2691 5.74022 10.7253 6.08308 10.8946 6.56053H8.57418Z" fill="#1D9EF9"/>
</g>
<defs>
<clipPath id="clip0">
<rect width="14" height="14" fill="white"/>
</clipPath>
</defs>
</svg>
