<svg width="14" height="14" viewBox="0 0 14 14" fill="none" xmlns="http://www.w3.org/2000/svg">
<g clip-path="url(#clip0)">
<path d="M13.7368 4.84842L7.17386 2.00446C7.06286 1.95636 6.9369 1.95636 6.82591 2.00446L0.26292 4.84842C-0.0877619 5.00038 -0.0878439 5.49936 0.26292 5.65132L2.62456 6.67468V9.40642C2.62456 10.8785 4.54642 12.0316 6.99988 12.0316C9.45335 12.0316 11.3752 10.8785 11.3752 9.40642V6.67468L11.8127 6.48509V11.1565C11.8127 11.3982 12.0086 11.5941 12.2503 11.5941C12.4919 11.5941 12.6878 11.3982 12.6878 11.1565V6.10592L13.7368 5.65135C14.0875 5.49939 14.0876 5.00041 13.7368 4.84842ZM6.99988 2.88275L12.4624 5.24988L12.0292 5.43761L7.05414 4.81572C6.81434 4.78594 6.59568 4.95584 6.56571 5.1956C6.53574 5.43537 6.70583 5.65405 6.9456 5.68403L10.4497 6.12205L6.99988 7.61699C3.91372 6.27964 4.57103 6.56448 1.53732 5.24986L6.99988 2.88275ZM10.5001 9.40644C10.5001 9.81868 10.1618 10.2431 9.57183 10.5709C8.16678 11.3514 5.83708 11.3537 4.42793 10.5709C3.83797 10.2431 3.49962 9.81868 3.49962 9.40644V7.05391L6.82591 8.49531C6.93671 8.54333 7.06264 8.54349 7.17386 8.49531L10.5001 7.05391V9.40644Z" fill="#1D9EF9"/>
</g>
<defs>
<clipPath id="clip0">
<rect width="14" height="14" fill="white"/>
</clipPath>
</defs>
</svg>
