<svg width="14" height="14" viewBox="0 0 14 14" fill="none" xmlns="http://www.w3.org/2000/svg">
<g clip-path="url(#clip0)">
<path d="M2.62514 10.9375C2.86674 10.9375 3.06262 10.7417 3.06262 10.5001C3.06262 9.53453 3.84386 8.75012 4.81256 8.75012C5.05416 8.75012 5.25004 8.55424 5.25004 8.31264C5.25004 8.07104 5.05416 7.87516 4.81256 7.87516C3.84703 7.87516 3.06262 7.09392 3.06262 6.12523C3.06262 5.88363 2.86674 5.68774 2.62514 5.68774C2.38354 5.68774 2.18766 5.88363 2.18766 6.12523C2.18766 7.09048 1.40653 7.87516 0.437727 7.87516C0.196127 7.87516 0.000244141 8.07104 0.000244141 8.31264C0.000244141 8.55424 0.196127 8.75012 0.437727 8.75012C1.40265 8.75012 2.18766 9.53513 2.18766 10.5001C2.18766 10.7417 2.38351 10.9375 2.62514 10.9375ZM2.62514 7.57756C2.81621 7.86408 3.06673 8.11698 3.36019 8.31264C3.07006 8.50612 2.81783 8.75827 2.62418 9.04909C2.43033 8.75795 2.17981 8.50743 1.88864 8.31357C2.16937 8.12666 2.42497 7.87778 2.62514 7.57756Z" fill="#1D9EF9"/>
<path d="M13.2204 1.55699L11.8455 0.946048L11.0281 0.128666C10.965 0.0655593 10.8778 0.0190768 10.7803 0.0052687C10.7281 -0.00214116 5.45987 -0.00077403 5.42564 0.00261646C5.37002 0.008085 5.31252 0.0254476 5.26262 0.0521341C5.18565 0.0934215 5.22546 0.0626336 4.34202 0.946076L2.96685 1.55713C2.49354 1.76775 2.18774 2.23854 2.18774 2.75657V4.81274C2.18774 5.05434 2.38363 5.25022 2.62523 5.25022C2.86683 5.25022 3.06271 5.05434 3.06271 4.81274V2.75657C3.06271 2.58379 3.16473 2.42674 3.32238 2.3566L4.34727 1.90121L5.4967 4.96638C5.60101 5.24451 5.94728 5.34026 6.17964 5.15436L7.65628 3.97305V13.1249H3.50019C3.25898 13.1249 3.06271 12.9286 3.06271 12.6874V11.8125C3.06271 11.5709 2.86683 11.375 2.62523 11.375C2.38363 11.375 2.18774 11.5709 2.18774 11.8125V12.6874C2.18774 13.4111 2.77651 13.9999 3.50019 13.9999H12.6873C13.411 13.9999 13.9998 13.4111 13.9998 12.6874V2.75657C13.9998 2.23854 13.694 1.76775 13.2204 1.55699ZM8.09376 2.44413L6.52503 0.875395H9.66249L8.09376 2.44413ZM10.7187 1.05659L11.0851 1.42301L10.0834 4.09423L8.74873 3.02653L10.7187 1.05659ZM6.10415 4.09423L5.10245 1.42301L5.46887 1.05659L7.4388 3.02653L6.10415 4.09423ZM13.1248 12.6874C13.1248 12.9286 12.9286 13.1249 12.6873 13.1249H8.53125V3.97305L10.0079 5.15436C10.24 5.34007 10.5864 5.24476 10.6908 4.96638L11.8403 1.90118L12.8649 2.35647C13.0228 2.42674 13.1248 2.58377 13.1248 2.75654V12.6874Z" fill="#1D9EF9"/>
<path d="M9.40623 7.65646C9.64785 7.65646 9.84372 7.46059 9.84372 7.21898C9.84372 6.97736 9.64785 6.78149 9.40623 6.78149C9.16462 6.78149 8.96875 6.97736 8.96875 7.21898C8.96875 7.46059 9.16462 7.65646 9.40623 7.65646Z" fill="#1D9EF9"/>
<path d="M9.40623 11.1563C9.64785 11.1563 9.84372 10.9605 9.84372 10.7189C9.84372 10.4772 9.64785 10.2814 9.40623 10.2814C9.16462 10.2814 8.96875 10.4772 8.96875 10.7189C8.96875 10.9605 9.16462 11.1563 9.40623 11.1563Z" fill="#1D9EF9"/>
</g>
<defs>
<clipPath id="clip0">
<rect width="14" height="14" fill="white"/>
</clipPath>
</defs>
</svg>
