<svg width="14" height="14" viewBox="0 0 14 14" fill="none" xmlns="http://www.w3.org/2000/svg">
<g clip-path="url(#clip0)">
<path d="M13.8246 6.13562L13.2657 5.92043C12.4527 5.60743 11.7297 5.08702 11.1748 4.41543C10.6712 3.80605 9.92905 3.45654 9.13855 3.45654C8.42036 3.45654 7.72406 3.75445 7.2281 4.2739L6.99978 4.51302L6.77146 4.2739C6.2755 3.75445 5.57916 3.45654 4.86101 3.45654C4.0705 3.45654 3.32831 3.80605 2.82475 4.41546C2.26986 5.08702 1.54687 5.60743 0.733886 5.92043L0.17498 6.13562C0.0520158 6.18296 -0.0196794 6.31123 0.0043831 6.44075C0.0284729 6.57028 0.141484 6.66423 0.273226 6.66423C0.679554 6.66423 1.1701 7.18401 1.73811 7.78587C2.83528 8.94842 4.33757 10.5401 6.99455 10.5436C6.99513 10.5436 6.99576 10.5436 6.99633 10.5436H7.00317C7.00374 10.5436 7.00437 10.5436 7.00494 10.5436C9.66193 10.5401 11.1642 8.94842 12.2614 7.78587C12.8294 7.18401 13.3199 6.66423 13.7263 6.66423C13.858 6.66423 13.971 6.57028 13.9951 6.44075C14.0192 6.31125 13.9475 6.18296 13.8246 6.13562ZM11.8637 7.41052C10.7768 8.56219 9.42415 9.9953 6.99978 9.99672C4.5754 9.99532 3.22271 8.56219 2.13582 7.41052C1.9031 7.16397 1.68717 6.93534 1.47802 6.74079C2.2755 6.60473 3.45765 6.50433 4.35239 6.86242C5.64159 7.37845 6.62558 7.4353 6.99649 7.4353C6.99868 7.4353 7.00081 7.4353 7.003 7.4353C7.37397 7.4353 8.35802 7.37842 9.64711 6.86242C10.5359 6.50668 11.6999 6.59962 12.5217 6.7406C12.3125 6.93521 12.0965 7.16388 11.8637 7.41052ZM9.44395 6.3547C8.38318 6.77927 7.54159 6.86874 7.14043 6.88476C7.13876 6.88473 7.1371 6.88473 7.1354 6.88473H6.86415C6.86262 6.88473 6.86112 6.88473 6.85958 6.88476C6.45826 6.86879 5.61654 6.77935 4.5556 6.35467C3.57621 5.96267 2.33459 6.04867 1.4731 6.18744C2.15261 5.83914 2.75833 5.35447 3.24636 4.76385C3.64566 4.2806 4.23418 4.00344 4.86103 4.00344C5.43052 4.00344 5.9827 4.23967 6.37596 4.65157L6.80203 5.09782C6.85362 5.15185 6.92507 5.18242 6.99978 5.18242C7.07448 5.18242 7.14596 5.15185 7.19753 5.09782L7.62359 4.65157C8.01688 4.23967 8.56903 4.00344 9.13852 4.00344C9.76537 4.00344 10.3539 4.2806 10.7532 4.76382C11.2411 5.35431 11.8466 5.83884 12.5259 6.18714C11.6415 6.04405 10.4168 5.96527 9.44395 6.3547Z" fill="#1D9EF9"/>
<path d="M10.5228 5.2356C10.1768 4.81691 9.66688 4.57678 9.12378 4.57678C8.97279 4.57678 8.85034 4.6992 8.85034 4.85022C8.85034 5.00124 8.97279 5.12368 9.12378 5.12368C9.50323 5.12368 9.85947 5.29144 10.1012 5.58396C10.1553 5.64942 10.2334 5.68324 10.3121 5.68324C10.3735 5.68324 10.4352 5.66271 10.4862 5.62057C10.6026 5.52438 10.6189 5.35203 10.5228 5.2356Z" fill="#1D9EF9"/>
<path d="M6.04784 8.77538C5.45298 8.6904 4.93984 8.46957 4.47913 8.10035C4.36128 8.00593 4.18923 8.02488 4.09473 8.14271C4.00032 8.26056 4.01926 8.43266 4.13712 8.52708C4.67633 8.95922 5.27604 9.2175 5.97051 9.31673C5.98361 9.31862 5.99662 9.31952 6.00953 9.31952C6.1434 9.31952 6.26038 9.22109 6.27988 9.08472C6.30123 8.93526 6.19735 8.79677 6.04784 8.77538Z" fill="#1D9EF9"/>
<path d="M7.10342 8.92637L7.08988 8.92443C6.94021 8.90302 6.80185 9.0069 6.78049 9.15641C6.75914 9.3059 6.86299 9.44442 7.01245 9.4658L7.02598 9.46774C7.03911 9.4696 7.05215 9.47053 7.06506 9.47053C7.19893 9.47053 7.3159 9.37212 7.3354 9.23576C7.35676 9.08627 7.25291 8.94775 7.10342 8.92637Z" fill="#1D9EF9"/>
</g>
<defs>
<clipPath id="clip0">
<rect width="14" height="14" fill="white"/>
</clipPath>
</defs>
</svg>
