<svg width="14" height="14" viewBox="0 0 14 14" fill="none" xmlns="http://www.w3.org/2000/svg">
<path d="M13.7266 0H2.67969C2.5287 0 2.40625 0.122418 2.40625 0.273438V1.47656H1.47656C1.32557 1.47656 1.20312 1.59901 1.20312 1.75V3.22656H0.273438C0.122418 3.22656 0 3.34901 0 3.5V12.5234C0 13.3376 0.662402 14 1.47656 14H12.5234C13.3376 14 14 13.3376 14 12.5234V0.273438C14 0.122418 13.8776 0 13.7266 0ZM13.4531 12.5234C13.4531 13.0361 13.0361 13.4531 12.5234 13.4531H2.62259C2.82904 13.1991 2.95312 12.8755 2.95312 12.5234V8.83211C2.95312 8.68112 2.83068 8.55868 2.67969 8.55868C2.5287 8.55868 2.40625 8.68112 2.40625 8.83211V12.5234C2.40625 13.0361 1.9892 13.4531 1.47656 13.4531C0.963922 13.4531 0.546875 13.0361 0.546875 12.5234V3.77344H1.20312V12.25C1.20312 12.401 1.32557 12.5234 1.47656 12.5234C1.62755 12.5234 1.75 12.401 1.75 12.25V2.02344H2.40625V6.37118C2.40625 6.5222 2.5287 6.64461 2.67969 6.64461C2.83068 6.64461 2.95312 6.5222 2.95312 6.37118V0.546875H13.4531V12.5234Z" fill="#1D9EF9"/>
<path d="M3.99219 4.32031H12.4141C12.5651 4.32031 12.6875 4.19789 12.6875 4.04688V2.07812C12.6875 1.92713 12.5651 1.80469 12.4141 1.80469H3.99219C3.84117 1.80469 3.71875 1.92713 3.71875 2.07812V4.04688C3.71875 4.19789 3.84117 4.32031 3.99219 4.32031ZM4.26562 2.35156H12.1406V3.77344H4.26562V2.35156Z" fill="#1D9EF9"/>
<path d="M3.99219 10.8828H8.20312C8.35412 10.8828 8.47656 10.7604 8.47656 10.6094V5.35938C8.47656 5.20836 8.35412 5.08594 8.20312 5.08594H3.99219C3.84117 5.08594 3.71875 5.20836 3.71875 5.35938V10.6094C3.71875 10.7604 3.84117 10.8828 3.99219 10.8828ZM4.26562 5.63281H7.92969V10.3359H4.26562V5.63281Z" fill="#1D9EF9"/>
<path d="M12.4141 5.08594H9.51562C9.36463 5.08594 9.24219 5.20836 9.24219 5.35938C9.24219 5.51039 9.36463 5.63281 9.51562 5.63281H12.4141C12.5651 5.63281 12.6875 5.51039 12.6875 5.35938C12.6875 5.20836 12.5651 5.08594 12.4141 5.08594Z" fill="#1D9EF9"/>
<path d="M12.4141 6.39844H9.51562C9.36463 6.39844 9.24219 6.52086 9.24219 6.67188C9.24219 6.82289 9.36463 6.94531 9.51562 6.94531H12.4141C12.5651 6.94531 12.6875 6.82289 12.6875 6.67188C12.6875 6.52086 12.5651 6.39844 12.4141 6.39844Z" fill="#1D9EF9"/>
<path d="M12.4141 7.71094H9.51562C9.36463 7.71094 9.24219 7.83338 9.24219 7.98438C9.24219 8.13537 9.36463 8.25781 9.51562 8.25781H12.4141C12.5651 8.25781 12.6875 8.13537 12.6875 7.98438C12.6875 7.83338 12.5651 7.71094 12.4141 7.71094Z" fill="#1D9EF9"/>
<path d="M12.4141 9.02344H9.51562C9.36463 9.02344 9.24219 9.14588 9.24219 9.29688C9.24219 9.44787 9.36463 9.57031 9.51562 9.57031H12.4141C12.5651 9.57031 12.6875 9.44787 12.6875 9.29688C12.6875 9.14588 12.5651 9.02344 12.4141 9.02344Z" fill="#1D9EF9"/>
<path d="M12.4141 10.3359H9.51562C9.36463 10.3359 9.24219 10.4584 9.24219 10.6094C9.24219 10.7604 9.36463 10.8828 9.51562 10.8828H12.4141C12.5651 10.8828 12.6875 10.7604 12.6875 10.6094C12.6875 10.4584 12.5651 10.3359 12.4141 10.3359Z" fill="#1D9EF9"/>
<path d="M3.99219 12.1953H12.4141C12.5651 12.1953 12.6875 12.0729 12.6875 11.9219C12.6875 11.7709 12.5651 11.6484 12.4141 11.6484H3.99219C3.84117 11.6484 3.71875 11.7709 3.71875 11.9219C3.71875 12.0729 3.84117 12.1953 3.99219 12.1953Z" fill="#1D9EF9"/>
<path d="M2.69336 7.32812C2.62145 7.32812 2.5509 7.35736 2.50004 7.40824C2.44918 7.4591 2.41992 7.52965 2.41992 7.60156C2.41992 7.67375 2.44915 7.74402 2.50004 7.79486C2.5509 7.84599 2.62145 7.875 2.69336 7.875C2.76527 7.875 2.83582 7.84602 2.88665 7.79486C2.93751 7.74402 2.9668 7.67348 2.9668 7.60156C2.9668 7.52965 2.93754 7.4591 2.88665 7.40824C2.83582 7.35736 2.76527 7.32812 2.69336 7.32812Z" fill="#1D9EF9"/>
</svg>
