<svg width="14" height="14" viewBox="0 0 14 14" fill="none" xmlns="http://www.w3.org/2000/svg">
<path d="M12.5192 0.673096H1.48077C0.664262 0.673096 0 1.33738 0 2.15387V8.21155V9.15387C0 9.97035 0.664262 10.6346 1.48077 10.6346H5.05621L4.62544 12.7885H3.23077C3.08208 12.7885 2.96155 12.909 2.96155 13.0577C2.96155 13.2064 3.08208 13.3269 3.23077 13.3269H10.7692C10.9179 13.3269 11.0385 13.2064 11.0385 13.0577C11.0385 12.909 10.9179 12.7885 10.7692 12.7885H9.37456L8.94379 10.6346H12.5192C13.3357 10.6346 14 9.97038 14 9.15387V8.21155V2.15387C14 1.33738 13.3357 0.673096 12.5192 0.673096ZM5.17456 12.7885L5.60533 10.6346H8.39467L8.82544 12.7885H5.17456ZM13.4615 9.15387C13.4615 9.67346 13.0388 10.0962 12.5192 10.0962H1.48077C0.961187 10.0962 0.538453 9.67348 0.538453 9.15387V8.4808H13.4615V9.15387H13.4615ZM13.4615 7.94235H0.538453V7.4039H2.15384C2.30254 7.4039 2.42307 7.28337 2.42307 7.13467C2.42307 6.98597 2.30254 6.86544 2.15384 6.86544H0.538453V2.15387C0.538453 1.63428 0.96116 1.21155 1.48077 1.21155H12.5192C13.0388 1.21155 13.4615 1.63426 13.4615 2.15387V7.94235Z" fill="#1D9EF9"/>
<path d="M6.99989 8.75C6.70298 8.75 6.46143 8.99155 6.46143 9.28845C6.46143 9.58535 6.70298 9.82691 6.99989 9.82691C7.29679 9.82691 7.53835 9.58535 7.53835 9.28845C7.53835 8.99155 7.29679 8.75 6.99989 8.75Z" fill="#1D9EF9"/>
<path d="M9.20404 5.82925L8.63291 5.25812L9.10886 4.7822C9.17806 4.71299 9.20426 4.61168 9.17727 4.51759C9.15028 4.42353 9.07438 4.35151 8.979 4.32947L6.50411 3.75834C6.41369 3.73753 6.31886 3.76466 6.25318 3.83031C6.18755 3.89596 6.16035 3.99076 6.18121 4.08124L6.75239 6.5561C6.77441 6.65144 6.84643 6.72738 6.94052 6.75437C7.03464 6.78133 7.13589 6.75513 7.20513 6.68595L7.68105 6.21001L8.25218 6.78114C8.30476 6.83372 8.37366 6.86 8.44254 6.86C8.51142 6.86 8.58036 6.83372 8.63291 6.78114L9.20404 6.21001C9.30915 6.10487 9.30915 5.93441 9.20404 5.82925ZM8.44254 6.21001L7.87141 5.63888C7.81883 5.5863 7.74992 5.56002 7.68105 5.56002C7.61217 5.56002 7.54323 5.5863 7.49068 5.63888L7.16786 5.96173L6.80282 4.37992L8.38463 4.74493L8.06178 5.06775C7.95664 5.17289 7.95664 5.34337 8.06178 5.44851L8.63291 6.01964L8.44254 6.21001Z" fill="#1D9EF9"/>
<path d="M5.89193 3.08795L5.6227 2.81872C5.51756 2.71358 5.34707 2.71358 5.24194 2.81872C5.1368 2.92386 5.1368 3.09432 5.24194 3.19948L5.51119 3.46871C5.56377 3.52129 5.63268 3.54757 5.70156 3.54757C5.77044 3.54757 5.83937 3.52129 5.89193 3.46871C5.99706 3.3636 5.99706 3.19311 5.89193 3.08795Z" fill="#1D9EF9"/>
<path d="M5.367 3.81677H4.98627C4.83757 3.81677 4.71704 3.9373 4.71704 4.086C4.71704 4.23469 4.83757 4.35523 4.98627 4.35523H5.367C5.5157 4.35523 5.63623 4.23469 5.63623 4.086C5.63623 3.9373 5.5157 3.81677 5.367 3.81677Z" fill="#1D9EF9"/>
<path d="M5.89165 4.70336C5.78654 4.59823 5.61608 4.59823 5.51092 4.70336L5.24169 4.97259C5.13656 5.07773 5.13656 5.24822 5.24169 5.35335C5.29428 5.40593 5.36318 5.43221 5.43206 5.43221C5.50094 5.43221 5.56987 5.40593 5.62243 5.35335L5.89165 5.08413C5.99679 4.97902 5.99679 4.80853 5.89165 4.70336Z" fill="#1D9EF9"/>
<path d="M7.77646 2.81872C7.67132 2.71358 7.50086 2.71358 7.39569 2.81872L7.12646 3.08795C7.02132 3.19308 7.02132 3.36357 7.12646 3.46871C7.17904 3.52129 7.24795 3.54757 7.31686 3.54757C7.38577 3.54757 7.45467 3.52129 7.50723 3.46871L7.77646 3.19948C7.8816 3.09437 7.8816 2.92388 7.77646 2.81872Z" fill="#1D9EF9"/>
<path d="M6.50897 2.29382C6.36028 2.29382 6.23975 2.41435 6.23975 2.56305V2.94378C6.23975 3.09248 6.36028 3.21301 6.50897 3.21301C6.65767 3.21301 6.7782 3.09248 6.7782 2.94378V2.56305C6.7782 2.41435 6.65767 2.29382 6.50897 2.29382Z" fill="#1D9EF9"/>
<path d="M3.22545 7.0821C3.22222 7.06487 3.21684 7.04792 3.21011 7.03148C3.20338 7.01532 3.19504 6.99971 3.18534 6.98516C3.17566 6.97034 3.16434 6.95662 3.15195 6.94423C3.13956 6.93184 3.12584 6.92055 3.11102 6.91084C3.09647 6.90116 3.08086 6.8928 3.06445 6.88607C3.04829 6.87934 3.03134 6.87396 3.01411 6.87073C2.97938 6.86373 2.94384 6.86373 2.90911 6.87073C2.89188 6.87396 2.87493 6.87934 2.85877 6.88607C2.84234 6.8928 2.82672 6.90114 2.8122 6.91084C2.79738 6.92052 2.78366 6.93184 2.77127 6.94423C2.75888 6.95662 2.74759 6.97034 2.73788 6.98516C2.7282 6.99971 2.71984 7.01532 2.71311 7.03148C2.70638 7.04792 2.701 7.06487 2.69777 7.0821C2.69427 7.09932 2.69238 7.1171 2.69238 7.1346C2.69238 7.1521 2.69427 7.16987 2.69777 7.1871C2.701 7.20432 2.70638 7.22128 2.71311 7.23744C2.71984 7.25387 2.72818 7.26948 2.73788 7.284C2.74756 7.29882 2.75888 7.31255 2.77127 7.32494C2.78366 7.33732 2.79738 7.34862 2.8122 7.35832C2.82675 7.368 2.84236 7.37637 2.85877 7.3831C2.87493 7.38982 2.89188 7.39521 2.90911 7.39871C2.92634 7.40221 2.94411 7.40382 2.96161 7.40382C2.97911 7.40382 2.99688 7.40221 3.01411 7.39871C3.03134 7.39521 3.04829 7.38982 3.06445 7.3831C3.08088 7.37637 3.0965 7.36803 3.11102 7.35832C3.12584 7.34864 3.13956 7.33732 3.15195 7.32494C3.16434 7.31255 3.17563 7.29882 3.18534 7.284C3.19502 7.26946 3.20338 7.25384 3.21011 7.23744C3.21684 7.22128 3.22222 7.20432 3.22545 7.1871C3.22895 7.16987 3.23084 7.1521 3.23084 7.1346C3.23084 7.1171 3.22895 7.09932 3.22545 7.0821Z" fill="#1D9EF9"/>
</svg>
