<svg width="14" height="14" viewBox="0 0 14 14" fill="none" xmlns="http://www.w3.org/2000/svg">
<path d="M8.28322 1.16663H6.88321C6.68977 1.16663 6.5332 1.3232 6.5332 1.51663C6.5332 1.71006 6.68977 1.86663 6.88321 1.86663H8.28322C8.47665 1.86663 8.63322 1.71006 8.63322 1.51663C8.63322 1.3232 8.47665 1.16663 8.28322 1.16663Z" fill="#1D9EF9"/>
<path d="M9.80005 0H4.20005C3.42819 0 2.80005 0.628141 2.80005 1.4V12.6C2.80005 13.3719 3.42819 14 4.20005 14H9.80005C10.5719 14 11.2 13.3719 11.2 12.6V1.4C11.2 0.628141 10.5719 0 9.80005 0ZM10.5 12.6C10.5 12.9866 10.1867 13.3 9.80005 13.3H4.20005C3.81341 13.3 3.50005 12.9866 3.50005 12.6V1.4C3.50005 1.01336 3.81341 0.7 4.20005 0.7H9.80005C10.1867 0.7 10.5 1.01336 10.5 1.4V12.6Z" fill="#1D9EF9"/>
<path d="M7.00005 12.8332C7.38665 12.8332 7.70005 12.5198 7.70005 12.1332C7.70005 11.7466 7.38665 11.4332 7.00005 11.4332C6.61345 11.4332 6.30005 11.7466 6.30005 12.1332C6.30005 12.5198 6.61345 12.8332 7.00005 12.8332Z" fill="#1D9EF9"/>
<path d="M5.71658 1.86663C5.90988 1.86663 6.06658 1.70993 6.06658 1.51663C6.06658 1.32333 5.90988 1.16663 5.71658 1.16663C5.52328 1.16663 5.36658 1.32333 5.36658 1.51663C5.36658 1.70993 5.52328 1.86663 5.71658 1.86663Z" fill="#1D9EF9"/>
</svg>
